<?xml version="1.0" standalone="no"?>
<!DOCTYPE svg PUBLIC "-//W3C//DTD SVG 1.1//EN" "http://www.w3.org/Graphics/SVG/1.1/DTD/svg11.dtd" >
<svg>
<metadata>
Created by FontForge 20090622 at Sun Sep 29 14:48:22 2019
 By deploy user
</metadata>
<defs>
<font id="LariSymbolV2" horiz-adv-x="500" >
  <font-face 
    font-family="Lari Symbol V2"
    font-weight="400"
    font-stretch="normal"
    units-per-em="1000"
    panose-1="0 0 0 0 0 0 0 0 0 0"
    ascent="750"
    descent="-250"
    x-height="761"
    cap-height="815"
    bbox="-36.8 -26 1016 1059"
    underline-thickness="50"
    underline-position="-50"
    unicode-range="U+000D-U+201D"
  />
<missing-glyph 
 />
    <glyph glyph-name=".notdef" 
 />
    <glyph glyph-name="NULL" horiz-adv-x="0" 
 />
    <glyph glyph-name="NULL" horiz-adv-x="0" 
 />
    <glyph glyph-name="nonmarkingreturn" unicode="&#xd;" 
 />
    <glyph glyph-name="space" unicode=" " 
 />
    <glyph glyph-name="w" unicode="w" horiz-adv-x="327" 
d="M212 652l-9 20t-9 18q-3 4 -5.5 8t-5.5 7l1 -17q1 -5 2.5 -29t3.5 -62q1 -20 1 -42.5t1 -45.5l2 -48t2 -41t1.5 -29t0.5 -12q0 -3 -3 -6.5t-8 -3.5q-12 0 -10 13q1 5 1 17t-2 35l-4.5 76t-2.5 71q0 19 -0.5 39t-1.5 39t-2 35t-2 26q-8 4 -21 4h-5q0 -11 0.5 -28t1 -36.5
t1.5 -40t3 -39.5q2 -24 3.5 -58t2.5 -66q2 -33 2.5 -55.5t-0.5 -24.5q-2 -7 -10 -7q-5 -1 -8.5 3t-3.5 7v16t-1 33q-1 18 -2 39.5l-2 44l-2 44.5t-1 41q-2 38 -2.5 66.5t-0.5 33.5l-1 16q-47 -44 -47 -272v-37q0 -33 2.5 -69t7.5 -74t10.5 -69t11.5 -54q5 -24 13 -44.5
t18 -37.5q20 -32 43 -33q9 1 21 2t23.5 1.5t20.5 0.5h11q5 0 9.5 -3.5t4.5 -10.5q0 -5 -5 -10q-2 -2 -4 -3l-80 -2h-2h-1h-113q-3 1 -5 3q-4 4 -4 9q0 6 4 10t8 4h24t38 -1q-10 6 -16 16.5t-11 21.5q-14 28 -23 65q-10 37 -16 75q-2 18 -4.5 36.5t-4.5 38.5q-6 64 -6 113
q0 23 1.5 50t3.5 58q2 30 3 50t1 28q0 9 0.5 16.5t0.5 14.5t0.5 15t1.5 18q2 9 2.5 17t2.5 16q3 15 9 29q7 16 15 24q12 14 29 18l-4 53q0 2 2 4q1 2 7 4q5 0 8.5 -4t3.5 -7q1 -2 2.5 -17t1.5 -29h5q5 0 10.5 -0.5t10.5 -1.5q-2 14 -3.5 30t-2.5 18q0 3 3.5 7t8.5 4
q4 0 8 -4q2 -2 2 -4l3 -57q9 -4 17 -11q2 -3 6 -8.5l11 -14.5q8 -9 12.5 -17t8.5 -16q6 -17 15 -79q8 -57 13 -110t8 -101q0 -7 -3.5 -10.5t-8.5 -3.5q-5 -1 -8.5 4t-4.5 10v11q0 14 -0.5 26.5t-1.5 23.5t-1.5 24.5t-2.5 29.5q-2 31 -6 55q-2 13 -4.5 26t-5.5 27t-6 25.5
t-7 21.5z" />
    <glyph glyph-name="r" unicode="r" horiz-adv-x="594" 
d="M330 360q0 32 2 71.5t6 87.5q0 2 1 13.5t3 26.5q-22 5 -42 5q-2 -16 -2.5 -27.5t-0.5 -12.5q-6 -71 -6 -129q0 -79 -43 -79q-17 0 -29 13q-12 12 -12 28q0 32 1.5 71.5t6.5 87.5v4q-19 -30 -36 -74q-35 -97 -35 -170q0 -59 22 -94t57 -58q13 -8 35 -18t39 -10
q39 0 63 2.5t39 5t23.5 4.5t15.5 3q33 4 53.5 -4t22.5 -30q2 -23 -8.5 -38t-36.5 -19q-13 -2 -25 -5t-27 -5.5t-35.5 -4.5t-50.5 -3v-1q-4 1 -14 1h-8h-2q-13 0 -26.5 -0.5t-24.5 -0.5h-27q-14 -1 -36 -1t-44.5 0.5t-41.5 0.5h-26q-24 -2 -37 10.5t-15 32.5q-2 21 13.5 26.5
t46.5 8.5q5 1 19.5 1h33.5q-24 15 -41.5 37.5t-29.5 48.5t-18 54t-6 56q0 141 55 250q48 95 122 125v9q5 43 13 69q10 36 36 36q16 0 26 -10q11 -13 11 -26q0 -29 -3 -65q11 -1 21 -1.5t19 -2.5v3q5 43 13 69q10 36 36 36q15 0 26 -11t11 -25q0 -20 -1.5 -45t-3.5 -54
q30 -16 57 -46q65 -72 65 -195q0 -41 -14 -54.5t-37 -13.5t-34 13.5t-12 57.5q0 77 -34 118q-2 -32 -3.5 -60.5t-1.5 -55.5q0 -78 -43 -78q-17 0 -29 13q-12 12 -12 28z" />
    <glyph glyph-name="t" unicode="t" horiz-adv-x="629" 
d="M561 520q9 -26 13 -54.5t4 -60.5q0 -43 -18 -64q-16 -19 -48 -19q-11 0 -23.5 3t-22.5 17q-8 11 -11.5 26.5t-3.5 40.5q0 60 -23 101q-3 -54 -3 -99q0 -79 -44 -79q-14 0 -29 13q-12 12 -12 28q0 32 2 71.5t6 87.5q1 2 1.5 11.5t2.5 23.5q-18 4 -39 6q-2 -14 -2.5 -24.5
t-0.5 -11.5q-6 -71 -6 -129q0 -78 -43 -78q-17 0 -29 12t-12 29q0 29 1.5 65.5t5.5 80.5q-13 -23 -23 -51q-15 -42 -23.5 -88.5t-8.5 -88.5q0 -50 20 -87q18 -30 52 -52q12 -8 32 -17t34 -9q28 0 48.5 1.5t34.5 3.5t23.5 3.5t16.5 3.5t17 4q5 0 10 0.5t10 0.5q22 0 35.5 -5
t21.5 -12.5t11 -16.5t4 -16q3 -28 -11 -48q-16 -20 -46 -25q-7 -1 -13 -2t-13 -3q-18 -4 -42.5 -7.5t-67.5 -5.5h-5h-14h-8h-2h-12h-66h-4h-1q-8 -1 -19 -1.5t-27 -0.5q-14 0 -28 0.5t-27 0.5q-11 0 -19.5 0.5t-14.5 0.5q-3 0 -5 -0.5t-4 -0.5h-5q-25 0 -43 16
q-17 15 -18 40q-2 16 4 24q6 10 18 16q8 5 34.5 8t55.5 -4q-23 15 -40.5 37.5t-29.5 48t-18 52.5t-6 52q0 71 14 136q8 32 18.5 62.5t24.5 58.5q51 104 136 134q4 36 12 62q10 36 36 36q16 0 26 -10q11 -11 11 -26q0 -11 -0.5 -23.5t-1.5 -26.5q20 0 38 -3q2 17 4.5 30.5
t6.5 25.5q10 36 36 36q16 0 26 -10q11 -11 11 -26q0 -17 -1 -37.5t-3 -43.5q39 -19 71 -54q17 -20 30 -42t21 -48z" />
    <glyph glyph-name="y" unicode="y" horiz-adv-x="778" 
d="M381 71h298v-71h-294h-4h-312v68h130q-42 22 -71 54.5t-47 71.5t-26 82.5t-8 88.5q0 55 12 110t39.5 103t71.5 85t108 54v113h71v-100q9 0 18 0.5t18 0.5t18 -0.5t18 -1.5v101h71v-113q64 -19 108 -57t71.5 -87t39.5 -103t12 -105h-88q0 99 -37.5 169t-105.5 102v-270
h-71v290q-9 1 -18 1.5t-18 0.5t-18 -0.5t-18 -1.5v-290h-71v270q-69 -31 -106 -101t-37 -170q0 -67 17 -121t49 -92.5t77.5 -59t102.5 -20.5v-1z" />
    <glyph glyph-name="u" unicode="u" horiz-adv-x="772" 
d="M183 366q0 -62 15 -109.5t42 -79t64.5 -48t81.5 -16.5h293v-113h-623l-1 103h102q-55 38 -84.5 101.5t-29.5 156.5q0 129 56 221.5t159 128.5v119h97h1v-99q8 0 14.5 0.5t14.5 0.5t15.5 -0.5t15.5 -0.5v99h98v-118q100 -35 155 -123t60 -224l-140 1v2q0 72 -20 123.5
t-55 82.5v-208h-98v250q-8 1 -14.5 1.5t-14.5 0.5t-15.5 -0.5t-15.5 -1.5v-250h-98v206q-35 -31 -55 -82.5t-20 -123.5z" />
    <glyph glyph-name="i" unicode="i" horiz-adv-x="818" 
d="M129 360q0 -62 22 -114.5t60.5 -91t89.5 -60.5t110 -22h314l-59 -72h-607l55 67h102q-78 41 -124.5 115t-46.5 178q0 66 19.5 122t54 100.5t81.5 76t103 47.5v83l72 59v-129q9 1 18 1h18h18t18 -1v70l72 59v-143q49 -14 92 -40t76.5 -63t55.5 -83t30 -100l-79 -65v6
q0 48 -13 90t-36 76.5t-55 60.5t-71 41v-213l-72 -59v290q-8 1 -17.5 1.5t-18.5 0.5t-18 -0.5t-18 -1.5v-231l-72 -59v271q-38 -16 -70 -42t-55 -60.5t-36 -76t-13 -88.5z" />
    <glyph glyph-name="o" unicode="o" horiz-adv-x="825" 
d="M177 365q0 -54 18 -99.5t49.5 -78.5t75.5 -52t97 -20h317l-96 -115h-588l83 100h76q-72 35 -112 99.5t-40 158.5q0 56 14.5 109t43.5 98t71.5 79.5t98.5 54.5v66l100 84v-130q8 1 17 1h17h19.5t18.5 -1v46l99 84v-150q90 -30 145.5 -97t73.5 -154l-111 -94v11
q0 69 -29.5 120.5t-78.5 82.5v-130l-99 -84v250q-9 1 -18 1.5t-19 0.5q-9 0 -18 -0.5t-17 -1.5v-166l-100 -84v214q-48 -31 -78 -83t-30 -120z" />
    <glyph glyph-name="bracketleft" unicode="[" horiz-adv-x="780" 
d="M691 87v-87h-652v74h140q-71 45 -114 118.5t-43 165.5q0 56 17.5 108t48.5 95.5t74 77t94 53.5v110h89v-89q8 1 21 1.5t18 0.5q11 0 20.5 -0.5t19.5 -1.5v89h88v-110q51 -19 94 -52.5t73.5 -77t48 -95.5t18.5 -109h-102q-1 87 -37 147t-95 92v-239h-88v268
q-8 1 -21.5 1.5t-18.5 0.5q-21 0 -39 -3v-267h-89v239q-60 -32 -96 -93t-36 -146q0 -56 18 -104t51.5 -84t81.5 -58t109 -25h307z" />
    <glyph glyph-name="p" unicode="p" horiz-adv-x="780" 
d="M691 87v-87h-652v74h140q-71 45 -114 118.5t-43 165.5q0 56 17.5 108t48.5 95.5t74 77t94 53.5v110h89v-89q8 1 21 1.5t18 0.5q11 0 20.5 -0.5t19.5 -1.5v89h88v-110q51 -19 94 -52.5t73.5 -77t48 -95.5t18.5 -109h-102q-1 87 -37 147t-95 92v-239h-88v268
q-8 1 -21.5 1.5t-18.5 0.5q-21 0 -39 -3v-267h-89v239q-60 -32 -96 -93t-36 -146q0 -56 18 -104t51.5 -84t81.5 -58t109 -25h307z" />
    <glyph glyph-name="a" unicode="a" horiz-adv-x="746" 
d="M645 37v-37h-567v37h142q-76 41 -123 120.5t-47 191.5q0 69 19.5 126.5t53 102t79 74.5t97.5 43v123h37v-116q21 3 43 3h15.5t15.5 -1v114h37v-121q53 -12 98.5 -43t79 -76t52.5 -102t19 -122h-176q0 235 -73 305v-306h-37v330q-18 5 -35 5q-20 0 -39 -8v-327h-37v299
q-35 -38 -54 -112t-19 -171q0 -70 8 -130.5t25.5 -105.5t45.5 -70.5t68 -25.5h272z" />
    <glyph glyph-name="bracketright" unicode="]" horiz-adv-x="725" 
d="M157 352q0 -82 14 -141.5t40.5 -98t64.5 -57t86 -18.5h262v-37h-547v37h161q-41 18 -76 47.5t-61 70t-41 91.5t-15 111q0 69 18.5 126t51 100.5t77 72t96.5 41.5v121h37v-114q11 1 21 1.5t21 0.5h16.5t16.5 -1v113h37v-120q85 -19 153 -96q88 -102 90 -254h-112
q-1 176 -75 277q-25 32 -56 48v-325h-37v338q-18 3 -38 3q-19 0 -37 -3v-338h-37v326q-64 -29 -97.5 -110t-33.5 -212z" />
    <glyph glyph-name="s" unicode="s" horiz-adv-x="804" 
d="M702 349q-4 -4 -8.5 -2t-4.5 7q0 45 -13.5 86.5t-37.5 76.5t-57.5 61.5t-73.5 42.5v-69v-143q0 -3 -2 -5l-55 -55q-4 -4 -8.5 -2t-4.5 7v198v86q-8 1 -16.5 1.5t-16.5 0.5q-10 0 -19 -0.5t-18 -1.5v-86v-143q0 -4 -3 -5l-55 -55q-3 -4 -7.5 -2t-4.5 7v198v67
q-39 -17 -71.5 -43.5t-56 -61t-36.5 -75.5t-13 -85q0 -59 22.5 -110.5t61 -90t90 -61t110.5 -22.5h1h298q5 0 7 -4.5t-2 -8.5l-55 -55q-2 -2 -5 -2h-542q-5 0 -7 4.5t2 8.5l50 50q3 3 6 3h67q-78 41 -126 115t-48 173q0 60 18.5 114t51 98.5t78 77.5t99.5 50v82q0 4 2 5
l55 55q4 4 8.5 2t4.5 -7v-123q9 1 18 1.5t19 0.5h16.5t16.5 -1v67q0 3 2 5l55 55q4 4 8.5 2t4.5 -7v-136q48 -14 90 -41t74 -64.5t53.5 -84t29.5 -100.5q0 -4 -3 -7l-49 -49v0z" />
    <glyph glyph-name="d" unicode="d" horiz-adv-x="836" 
d="M485 360q-5 -5 -11 -2.5t-6 9.5v211q-7 1 -13 1.5t-13 0.5q-6 0 -12 -0.5t-11 -0.5v-125q0 -4 -3 -7l-87 -87q-5 -5 -11 -2.5t-6 9.5v170q-43 -31 -68.5 -78.5t-25.5 -104.5q0 -46 17.5 -86.5t48 -71t71 -48t86.5 -17.5h293q7 0 9.5 -6t-2.5 -11l-111 -111q-2 -3 -7 -3
h-558q-6 0 -9 6t2 11l96 96q3 3 7 3h48q-56 38 -88.5 97.5t-32.5 140.5q0 57 16.5 108.5t46 94.5t70.5 76t91 53v79q0 4 3 7l87 87q5 5 11 2.5t6 -9.5v-143q5 1 11 1h12h13t13 -1v56q0 4 3 7l87 87q5 5 11 2.5t6 -9.5v-167q73 -29 127 -87t78 -134q1 -6 -3 -10l-94 -95
q-5 -5 -11 -2.5t-6 9.5q-4 54 -28.5 97t-62.5 72v-81q0 -4 -3 -7l-87 -87v0z" />
    <glyph glyph-name="f" unicode="f" horiz-adv-x="658" 
d="M433 631q49 -15 81.5 -44t53 -67.5t29.5 -83t11 -90.5q0 -5 -3 -9q-2 -4 -8 -8q-5 -3 -14 -5q-10 -2 -19 -2q-5 0 -10 0.5t-10 1.5q-10 2 -14 4q-7 3 -8 7q-3 4 -3 10v1q-2 42 -9 74.5t-18.5 56.5t-26.5 40.5t-32 27.5v-202q0 -6 -2 -8q-3 -4 -7 -7q-6 -4 -12 -5
q-4 0 -8 -0.5t-9 -0.5t-9 0.5t-8 0.5q-4 1 -7 2t-5 2q-5 2 -8 7q-2 4 -2 8v229q-7 1 -13.5 1h-12.5h-15t-15 -2v-227q0 -4 -2 -8q-3 -5 -8 -7q-6 -4 -12 -5q-3 0 -7 -0.5t-9 -0.5t-9 0.5t-8 0.5q-4 1 -7 2l-6 2q-4 3 -7 7q-2 2 -2 8v200q-37 -25 -61.5 -76.5t-24.5 -140.5
q0 -76 15 -124.5t40.5 -77t59 -39.5t71.5 -11h227q3 0 7 -2q4 -3 7 -7q2 -3 4 -11q1 -5 1 -16t-1 -16q-1 -7 -4 -12q-1 -4 -6 -7q-4 -2 -8 -2h-179h-289q-3 0 -7 2q-3 1 -6 6q-2 6 -3 10t-1 14t1 14q2 8 3 11q2 5 5 6q4 2 8 2h74q-31 18 -52 44.5t-33.5 59t-17.5 70.5t-5 80
q0 49 9 96.5t29.5 88.5t54 73t82.5 49v98q0 5 2 8q3 4 7 7q3 2 12 4q5 1 17 1h9t8 -1q9 -2 12 -4q5 -1 8 -6q2 -6 2 -9v-81q8 1 17 1h18h21v80q0 2 2 8q3 4 8 7q3 2 11 4q4 1 8 1h9q12 0 17 -1q8 -2 13 -4q4 -1 7 -6q2 -3 2 -9v-93v0z" />
    <glyph glyph-name="g" unicode="g" horiz-adv-x="672" 
d="M442 631q48 -13 82 -38t56 -61t33.5 -82t13.5 -100q0 -5 -4 -11q-4 -5 -12 -10q-9 -4 -21 -5q-6 -2 -14 -2h-16h-17.5t-14.5 1q-12 2 -21 5q-5 2 -7.5 4t-4.5 4q-3 6 -3 12q-2 55 -15 91.5t-35 59.5v-158q0 -6 -2 -8q-3 -5 -8 -6q-3 -2 -14 -4q-4 -1 -9 -1h-11h-11t-10 1
q-4 0 -7.5 1t-6.5 2q-5 2 -7 5q-3 4 -3 8v199h-18h-11.5t-10.5 -1v-196q0 -5 -3 -8q-3 -5 -8 -6q-3 -2 -13 -4q-5 -1 -10 -1h-11h-11t-9 1q-5 0 -8.5 1t-5.5 2q-6 2 -8 5t-2 8v153q-23 -26 -36.5 -67.5t-13.5 -100.5q0 -112 36.5 -166t122.5 -54h224q4 0 9 -3q5 -5 7 -9
q2 -5 4 -16q1 -5 1.5 -10.5t0.5 -13.5q0 -7 -0.5 -13t-1.5 -11q0 -5 -1 -9t-2 -7q-3 -7 -7 -9q-3 -3 -8 -3h-494q-4 0 -8 3q-4 4 -6 8q-2 3 -4 14q-1 5 -1 10v11v11t1 10q1 9 3 15q2 4 6 8q4 2 8 2h90q-60 32 -87.5 87.5t-27.5 138.5q0 53 10.5 101.5t33 89t57.5 70.5t84 47
v100q0 5 2 7q3 4 8 7q4 1 14 3t20 2q6 0 11 -0.5t10 -0.5q10 -2 14 -4q5 -2 7 -5q3 -3 3 -8v-85q6 1 12.5 1h13.5h14v83q0 4 3 7q3 4 8 7q3 1 13 3q5 1 10 1.5t11 0.5t11 -0.5t9 -0.5q11 -2 14 -4q6 -2 8 -5q2 -2 2 -8v-96v0z" />
    <glyph glyph-name="j" unicode="j" horiz-adv-x="698" 
d="M429 316q-20 0 -33.5 13.5t-13.5 33.5v197q-8 2 -16 3t-16 1q-9 0 -17.5 -1t-16.5 -3v-197q0 -20 -13.5 -33.5t-33.5 -13.5q-19 0 -32.5 13.5t-13.5 33.5v147q-33 -32 -53 -77.5t-20 -100.5q0 -42 13.5 -82t39.5 -72t63 -53t84 -24h202q20 0 35 -15t15 -35q0 -21 -15 -36
t-35 -15h-459q-18 0 -30.5 12.5t-12.5 30.5q0 17 12.5 29.5t30.5 12.5h86q-56 35 -92.5 95.5t-36.5 151.5q0 54 13.5 100.5t37 84.5t55 66.5t67.5 47.5v82q0 20 13.5 33t32.5 13q20 0 33.5 -13t13.5 -33v-52q16 3 34 3q8 0 16 -0.5t16 -1.5v51q0 20 13.5 33t33.5 13
q19 0 32.5 -13t13.5 -33v-81q33 -17 62 -42.5t52 -58.5t38.5 -73.5t20.5 -87.5v-5q0 -20 -14.5 -35t-35.5 -15q-20 0 -34 13t-16 32q-5 47 -24.5 85.5t-48.5 66.5v-149q0 -20 -13.5 -33.5t-32.5 -13.5z" />
    <glyph glyph-name="h" unicode="h" horiz-adv-x="636" 
d="M586 326q0 -8 -5.5 -14.5t-13.5 -7.5q-9 -1 -15.5 5t-7.5 14q-8 103 -51 165t-103 85v-247q0 -8 -6 -14.5t-15 -6.5q-8 0 -14 6.5t-6 14.5v258q-8 1 -15.5 1.5t-15.5 0.5q-16 0 -31 -3v-257q0 -8 -6 -14.5t-15 -6.5q-8 0 -14 6.5t-6 14.5v246q-32 -12 -60 -35t-49 -56
t-33.5 -75t-12.5 -92q0 -65 19.5 -115.5t51.5 -85t73 -53t83 -18.5h217q8 0 14.5 -6.5t6.5 -14.5q0 -9 -6.5 -15t-14.5 -6h-217h-250q-8 0 -13 5t-5 13t5 13t13 5h148q-36 15 -66.5 41.5t-52.5 61.5t-34.5 79.5t-12.5 95.5q0 56 14.5 105.5t40.5 89t62 67.5t79 41v67
q0 8 6 14.5t14 6.5q9 0 15 -6.5t6 -14.5v-59q8 2 15.5 2h15.5h15.5t15.5 -1v58q0 8 6 14.5t14 6.5q9 0 15 -6.5t6 -14.5v-67q84 -25 135.5 -102t60.5 -189z" />
    <glyph glyph-name="k" unicode="k" horiz-adv-x="530" 
d="M141 355q0 -154 34 -224.5t91 -70.5h170v-60h-170h-196v55h80q-30 19 -49 49t-30.5 68.5t-15.5 85t-4 97.5q0 59 5.5 114t21 100.5t42.5 78.5t69 49v89h60v-76h17h17v76h60v-88q42 -16 69 -49.5t42 -79t21 -100.5t6 -114h-90q-1 95 -13 156.5t-35 94.5v-251h-60v294
q-5 1 -9 1h-8h-9t-8 -1v-294h-60v249q-23 -34 -35.5 -95.5t-12.5 -153.5z" />
    <glyph glyph-name="l" unicode="l" horiz-adv-x="550" 
d="M165 355q0 -141 28 -213t82 -72h170v-70h-158h-12h-206v65h62q-39 35 -62.5 104t-23.5 186q0 81 11.5 140.5t31.5 100.5t48.5 65.5t61.5 36.5v89h60v-77h17h17v77h60v-88q33 -12 61 -36t48 -65.5t32 -101t12 -141.5h-120q-2 154 -33 224v-224h-60v283q-5 2 -8.5 2h-8.5
h-9t-8 -2v-283h-60v224q-33 -72 -33 -224z" />
    <glyph glyph-name="semicolon" unicode=";" horiz-adv-x="823" 
d="M124 361q0 -62 22.5 -116t61.5 -94t91 -63.5t112 -23.5h325v-64h-325h-346v64h164q-84 41 -131.5 118t-47.5 180q0 59 18 113t50.5 99t77.5 78.5t98 51.5v115h77v-98q10 1 20 1.5t20 0.5q11 0 20.5 -0.5t19.5 -1.5v98h77v-115q53 -18 98 -51.5t77.5 -78.5t51 -99
t18.5 -113h-74q0 45 -12.5 86.5t-35 77t-54 63t-69.5 45.5v-272h-77v294q-20 3 -40 3q-21 0 -40 -3v-294h-77v272q-38 -18 -69 -45.5t-53.5 -63t-35 -77t-12.5 -87.5z" />
    <glyph glyph-name="quotesingle" unicode="'" horiz-adv-x="814" 
d="M175 362q0 -51 18 -95.5t49.5 -77.5t74 -52.5t90.5 -19.5h297v-117h-640v99h108q-62 43 -94.5 109.5t-32.5 153.5q0 58 17 110.5t47.5 96.5t73 77.5t92.5 53.5v114h88v-92q11 2 22 2h22h22t22 -2v92h88v-114q51 -20 93 -53.5t72.5 -77.5t47.5 -96.5t17 -110.5h-130
q0 63 -27 116t-73 86v-202h-88v241q-19 4 -44 4t-44 -4v-241h-88v202q-45 -33 -72.5 -86t-27.5 -116z" />
    <glyph glyph-name="x" unicode="x" horiz-adv-x="649" 
d="M325 108h255v-108h-534v97h46q-4 3 -7 6l-6 6q-13 15 -22.5 31t-16 40.5t-10 61.5t-3.5 94q0 115 13 180.5t39 95.5q19 21 52 34.5t86 20.5v95h82v-90h26h25v90h83v-95q101 -13 137 -55q26 -30 39 -98t13 -181h-128q0 84 -5.5 134.5t-16.5 66.5q-11 13 -39 21v-222h-83
v231h-24h-1h-2h-24v-231h-82v222q-29 -7 -40 -21q-11 -15 -16.5 -65.5t-5.5 -132.5q0 -81 5.5 -131.5t16.5 -65.5q23 -31 146 -31h2z" />
    <glyph glyph-name="z" unicode="z" horiz-adv-x="614" 
d="M519 333v4q0 100 -6.5 160.5t-20.5 77.5q-19 24 -91 31v-273h-63v277h-31h-32v-277h-63v273q-73 -8 -90 -31q-14 -17 -20.5 -77.5t-6.5 -160.5q0 -101 6.5 -161.5t20.5 -77.5q11 -14 34.5 -21t50.5 -10t54.5 -3.5t45.5 -0.5h248v-63h-521v57h68q-21 10 -33 24
q-23 27 -34.5 87.5t-11.5 168.5q0 50 3 95t8.5 82t14 63.5t19.5 40.5q33 40 144 51v92h63v-88h32h31v88h63v-92q111 -11 144 -51q23 -27 34.5 -100.5t11.5 -180.5v-4h-72z" />
    <glyph glyph-name="c" unicode="c" horiz-adv-x="676" 
d="M139 365q0 -96 10.5 -153.5t35 -88t64.5 -40t99 -9.5h246v-74h-246h-273v64h88q-23 14 -41 37.5t-31 59t-19.5 86t-6.5 118.5q0 102 13 169.5t37.5 109.5t59 62t77.5 28v91h64v-84h33h31v84h64v-90q43 -7 78 -27t59 -61t37 -108t13 -169h-74q0 81 -7.5 134t-21.5 86
t-35 49t-49 22v-291h-64v297h-31h-33v-297h-64v290q-27 -6 -48.5 -22.5t-35.5 -50t-21.5 -87.5t-7.5 -135z" />
    <glyph glyph-name="v" unicode="v" horiz-adv-x="671" 
d="M185 365q0 -75 7.5 -121t25.5 -71.5t48.5 -34.5t77.5 -9h221v-129h-504v91h108q-26 13 -48 34.5t-37.5 54.5t-24.5 78.5t-9 106.5q0 100 13.5 166.5t38 108.5t59 63t76.5 30v92h86v-84h21h21v84h85v-91q43 -8 77.5 -29t59 -62.5t38 -107.5t13.5 -165h-134q0 99 -13 150
t-41 73v-223h-85v248h-21h-21v-248h-86v223q-13 -11 -23 -29t-16.5 -45.5t-9.5 -65t-3 -88.5z" />
    <glyph glyph-name="b" unicode="b" horiz-adv-x="757" 
d="M113 359q0 -59 16.5 -111.5t49 -93t81.5 -64t114 -23.5h275v-67l-270 -1h-294v61h112q-80 38 -122.5 113.5t-42.5 185.5q0 66 17.5 121.5t49.5 99t77.5 73.5t101.5 45v99h67v-86q11 1 22 1.5t23 0.5h11t12 -1v85h67v-94q61 -14 107 -45.5t76.5 -76.5t46 -102.5
t15.5 -121.5h-80v1q0 48 -10.5 91t-31.5 78t-52 61t-71 41v-272h-67v287q-8 1 -16 1h-16h-18.5t-17.5 -2v-286h-67v272q-41 -15 -72 -41t-51.5 -61t-31 -77.5t-10.5 -90.5z" />
    <glyph glyph-name="n" unicode="n" horiz-adv-x="806" 
d="M710 138v-138h-638v121h77q-57 33 -86.5 90.5t-29.5 147.5q0 129 64.5 217t180.5 120v102h100v-85q9 0 17.5 0.5t17.5 0.5q10 0 15 -1v85h100v-97q64 -15 110 -46.5t76 -76.5t44.5 -101t14.5 -120h-169v1q0 60 -18.5 107t-57.5 76v-184h-100v218q-5 1 -11 1h-13h-13
t-13 -1v-218h-100v185q-41 -29 -59 -76t-18 -106q0 -46 11 -86.5t34.5 -70.5t60.5 -47.5t90 -17.5h313z" />
    <glyph glyph-name="m" unicode="m" horiz-adv-x="770" 
d="M159 355q0 -51 13 -99.5t40.5 -86t70.5 -60t102 -22.5h281l-69 -87h-532l65 82h58q-65 38 -99 106.5t-34 166.5q0 60 14 113t40 96.5t64.5 75.5t88.5 50v58l82 65v-105q10 1 20 1.5t21 0.5t21 -0.5t20 -1.5v40l82 65v-123q85 -31 136.5 -100t65.5 -163l-99 -78v6
q0 72 -25.5 134t-77.5 99v-174l-82 -65v271q-17 4 -41 4q-11 0 -21 -1t-20 -3v-206l-82 -65v239q-52 -37 -77.5 -99t-25.5 -134z" />
    <glyph glyph-name="comma" unicode="," horiz-adv-x="754" 
d="M188 356q0 -47 10.5 -92.5t34 -81t60.5 -57.5t91 -22h288l-80 -104h-208h-333l71 93h45q-119 78 -119 264q0 125 52.5 212t154.5 122v60l93 72v-114q9 1 18 1h18h18t17 -1v42l93 72v-133q81 -28 131.5 -90t67.5 -149l-131 -102v8q0 56 -16.5 109t-51.5 89v-128l-93 -72
v248q-17 3 -35 3t-36 -3v-176l-93 -72v200q-35 -36 -51 -89t-16 -109z" />
    <glyph glyph-name="slash" unicode="/" horiz-adv-x="768" 
d="M166 394q0 -42 11.5 -87t37 -81.5t66.5 -60t101 -23.5h312l-80 -142h-232h-354l68 121h43q-57 45 -89 112t-32 155q0 65 16.5 123t47 105t74 82t97.5 55v80l100 56v-116q7 1 14 1h15h14t14 -1v60l100 56v-136q94 -33 154 -111.5t76 -183.5l-143 -81v17q0 56 -22.5 108
t-64.5 86v-155l-100 -56v254q-7 1 -13.5 1.5t-14.5 0.5t-15 -0.5t-14 -1.5v-198l-100 -56v211q-42 -34 -64.5 -86t-22.5 -108z" />
    <glyph glyph-name="period" unicode="." horiz-adv-x="849" 
d="M122 384q0 -63 23.5 -119t64.5 -97.5t96 -66t118 -24.5h345l-43 -77h-302h-335l37 66h101q-42 23 -77 55.5t-60 73t-38.5 88t-13.5 100.5q0 63 19.5 120.5t54 104.5t82 82.5t104.5 55.5v96l84 47v-124q11 1 21 1.5t21 0.5t21 -0.5t21 -1.5v77l84 47v-143
q52 -18 96.5 -49.5t78.5 -73.5t55.5 -92.5t27.5 -107.5l-82 -46q1 2 1 7q0 46 -13 88.5t-36 78.5t-56 65t-72 47v-238l-84 -48v311q-11 1 -21 1.5t-21 0.5t-21 -0.5t-21 -1.5v-263l-84 -48v286q-39 -18 -71.5 -47t-56 -65t-36 -78.5t-12.5 -88.5z" />
    <glyph glyph-name="Q" unicode="Q" horiz-adv-x="577" 
d="M379 680q36 -8 60 -21.5t38.5 -31.5t21 -39.5t6.5 -45.5v-186q0 -5 -3.5 -8.5t-8.5 -3.5h-47q-5 0 -8.5 3.5t-3.5 8.5v175q0 28 -13 49t-42 33v-257q0 -5 -3.5 -8.5t-8.5 -3.5h-47q-5 0 -8.5 3.5t-3.5 8.5v271h-20h-19v-271q0 -5 -3.5 -8.5t-8.5 -3.5h-47q-5 0 -8.5 3.5
t-3.5 8.5v257q-29 -12 -42 -33t-13 -49v-374q0 -44 33 -70t112 -26h1h174q12 0 12 -12v-37q0 -5 -3.5 -8.5t-8.5 -3.5h-174h-198q-5 0 -8.5 3.5t-3.5 8.5v29q0 12 12 12h50q-38 19 -53.5 48t-15.5 65v376q0 47 27.5 84.5t98.5 53.5v91q0 12 12 12h47q12 0 12 -12v-83h19h20
v83q0 5 3.5 8.5t8.5 3.5h47q12 0 12 -12v-91v0z" />
    <glyph glyph-name="W" unicode="W" horiz-adv-x="616" 
d="M372 684q51 -7 87 -23.5t58.5 -39t33 -49.5t10.5 -55v-150q0 -9 -6.5 -15.5t-15.5 -6.5h-121q-9 0 -15.5 6.5t-6.5 15.5v121q0 32 -24 48v-179q0 -12 -13 -12h-25q-13 0 -13 12v196h-16h-16v-196q0 -12 -12 -12h-26q-12 0 -12 12v179q-24 -16 -24 -48v-288
q0 -35 26.5 -50t63.5 -15h156q9 0 15.5 -6.5t6.5 -15.5v-90q0 -10 -6.5 -16.5t-15.5 -6.5h-56.5t-48 0.5t-49 0.5h-58t-75.5 -0.5t-102 -0.5q-9 0 -15.5 6.5t-6.5 16.5v70q0 9 6.5 15.5t15.5 6.5h38q-32 17 -46 41.5t-14 57.5v303q0 28 10 55.5t32.5 50t58.5 39t88 22.5v87
q0 13 12 13h26q12 0 12 -13v-83h16h16v83q0 13 13 13h25q13 0 13 -13v-87v0z" />
    <glyph glyph-name="E" unicode="E" horiz-adv-x="744" 
d="M157 346q0 -81 17 -138.5t46 -94t68 -53.5t84 -17h274v-43h-586v38h158q-39 21 -72 50t-57 67t-37 85.5t-13 105.5q0 73 20 133.5t55 106.5t83.5 75.5t104.5 41.5v119h40v-113q8 1 15 1h15h15t15 -1v113h40v-119q56 -11 104 -40.5t83.5 -75t55.5 -106.5t20 -134h-118
q-1 131 -40.5 206.5t-104.5 101.5v-308h-40v318q-8 1 -15 1.5t-15 0.5t-15.5 -0.5t-14.5 -1.5v-318h-40v307q-65 -26 -105 -102t-40 -206z" />
    <glyph glyph-name="R" unicode="R" horiz-adv-x="820" 
d="M590 364v3q0 123 -25 193.5t-70 100.5v-297h-49v317q-17 3 -36 3q-21 0 -37 -4v-316h-49v293q-45 -33 -69.5 -105.5t-24.5 -188.5q0 -81 14 -140.5t38 -98.5t57 -58t71 -19h276v-47h-276h-355v41h173q-91 36 -142 114.5t-51 202.5q0 76 21.5 138t60 108.5t91.5 76.5
t116 42v116h49v-109q9 1 18 1h19h18t18 -1v109h49v-116q63 -12 116 -42t91.5 -75t60.5 -104.5t22 -130.5v-7h-195z" />
    <glyph glyph-name="T" unicode="T" horiz-adv-x="824" 
d="M150 343q0 -54 19.5 -100t54.5 -80.5t82.5 -54t104.5 -19.5h300v-89h-614v83h107q-72 38 -113 104t-41 156q0 57 16 109t47 95.5t74.5 76t99.5 50.5v109h83v-93q11 2 20.5 2h20.5t21.5 -0.5t21.5 -1.5v93h83v-110q55 -18 99 -50t75 -75t47 -95t16 -108h-100v2
q0 76 -37 135t-100 90v-227h-83v252q-21 3 -43 3q-20 0 -41 -3v-252h-83v227q-63 -32 -100 -93t-37 -136z" />
    <glyph glyph-name="Y" unicode="Y" horiz-adv-x="858" 
d="M615 343v1q0 53 -16 91.5t-44 63.5v-154h-101v198q-6 1 -12 1h-13h-12t-12 -1v-198h-101v154q-28 -26 -44.5 -65t-16.5 -90q0 -49 14.5 -86.5t40 -63t59.5 -38.5t72 -13h318v-143h-667v125h77q-51 35 -79 88.5t-28 130.5q0 60 17.5 113t50 95t79.5 72.5t107 46.5v112h101
v-97h24h25v97h101v-112q59 -15 106 -45t79.5 -72t50 -95.5t17.5 -114.5v-1h-193z" />
    <glyph glyph-name="U" unicode="U" horiz-adv-x="760" 
d="M133 355q0 -56 15 -106t45.5 -87.5t77 -59.5t109.5 -22h294v-80h-294h-325v68h137q-75 39 -114.5 111.5t-39.5 175.5q0 61 14 114.5t41.5 96.5t67.5 74.5t91 49.5v125h85v-108q11 2 21.5 2h21.5h21t21 -2v108h85v-127q51 -18 90.5 -50.5t67 -76t42 -96t14.5 -110.5h-95
q0 37 -7.5 72.5t-22.5 67t-37 57.5t-52 44v-241h-85v271q-20 3 -42 3q-11 0 -21.5 -0.5t-21.5 -1.5v-272h-85v243q-61 -35 -90 -100t-29 -143z" />
    <glyph glyph-name="I" unicode="I" horiz-adv-x="778" 
d="M195 354q0 -45 11 -87.5t34.5 -75.5t60.5 -53t88 -20h272v-118h-272h-329v109h86q-52 41 -80 102t-28 143q0 62 15.5 117t45 99.5t72 77t97.5 49.5v118h81v-102q10 1 19.5 1h20.5h20.5t19.5 -2v103h81v-120q54 -18 96 -51t71 -77.5t45 -98t18 -111.5h-157
q-2 54 -19.5 103t-53.5 81v-184h-81v222q-18 3 -40 3t-40 -3v-222h-81v186q-38 -32 -55.5 -82t-17.5 -107z" />
    <glyph glyph-name="O" unicode="O" horiz-adv-x="723" 
d="M811 822q-8 -9 -23.5 -36l-35.5 -63q27 -28 40 -69t13 -91q0 -27 -2 -53.5t-7 -49.5t-13.5 -41.5t-20.5 -28.5q-11 -9 -24.5 -13.5t-28 -5t-28.5 4t-25 14.5q19 7 34 26.5t25 47.5t15 60.5t5 64.5q0 46 -11 79l-33.5 -67.5l-31 -64l-24.5 -51.5t-14 -32l-10.5 -31
t-5.5 -28q0 -18 -3 -18q-2 0 -8.5 2.5t-13.5 8.5t-12.5 14.5t-5.5 20.5q0 21 10 55t26 75t36 84.5l40 83.5h-2q-20 -2 -36 -7l-41 -79l-39 -77.5l-31.5 -64.5t-17.5 -39l-10 -31t-6 -28q0 -18 -3 -18q-2 0 -8.5 2.5t-13.5 8.5t-12.5 14.5t-5.5 20.5q1 20 7.5 47t18 58
t26 64.5t30.5 66.5q-56 -42 -104 -104.5t-83 -130t-55 -134t-20 -116.5q0 -32 6.5 -53t19 -34t31 -20t42.5 -11l207 -14q35 -2 53 -6.5t30 -9.5q-5 -9 -10 -16.5t-15 -12t-27.5 -7t-45.5 -2.5q-35 0 -85.5 2.5t-106 6t-110.5 6t-100 2.5q-16 0 -23.5 -0.5t-12 -1t-8.5 -1
t-13 -1.5q-7 10 -7 22q0 10 1 17.5t7.5 13t20 8.5t37.5 3h24.5t31.5 -1q-31 25 -49 63.5t-18 96.5t16.5 118.5t46.5 118.5t71 110.5t89.5 94t103.5 68.5t112 35q23 41 41.5 67.5t26.5 31.5q9 -2 24 -11t26 -25q-6 -7 -16 -23.5l-23 -39.5q8 -2 15 -4t15 -4q22 40 39.5 67
t25.5 31q9 -2 24 -11t26 -25z" />
    <glyph glyph-name="P" unicode="P" horiz-adv-x="599" 
d="M448 328v133q0 73 -53 102v-235h-72v255q-6 0 -11.5 0.5t-11.5 0.5t-12 -0.5t-11 -0.5v-255h-73v235q-53 -30 -53 -102v-266q0 -59 36.5 -90.5t112.5 -31.5h190v-73h-190h-214v67h55q-38 24 -55 60.5t-17 82.5v253q0 62 32 111t103 70v90h73v-78h23h23v78h72v-90
q71 -21 103 -70t32 -111v-135h-82z" />
    <glyph glyph-name="braceleft" unicode="{" horiz-adv-x="593" 
d="M400 327v121q0 46 -37 67v-188h-51v201h-16h-16v-201h-50v188q-37 -21 -37 -67v-241q0 -38 24.5 -59t78.5 -21h199v-128h-199h-230v111h56q-38 23 -55 55.5t-17 72.5v222q0 31 10 62t31.5 56.5t55.5 44.5t83 27v84h50v-79h16h16v79h51v-84q49 -8 83 -27t55.5 -44.5
t31.5 -56.5t10 -62v-133h-143z" />
    <glyph glyph-name="braceright" unicode="}" horiz-adv-x="664" 
d="M504 737q68 -19 107.5 -70t40.5 -141q1 -56 -17.5 -92.5t-47.5 -56.5q-25 -17 -54.5 -20.5t-60.5 9.5q22 20 36.5 64.5t14.5 96.5q0 46 -7.5 81t-27.5 57l-61 -293h-72l68 324q-7 2 -13.5 2h-14.5q-17 0 -30 -4l-67 -322h-72l56 270q-45 -47 -77.5 -128t-40.5 -189
q-2 -20 -3.5 -45.5t-1.5 -53.5t2 -54.5t8.5 -48t18 -34.5t30.5 -14q18 -1 45.5 1l60.5 4.5t71 5t79 2.5q25 0 38.5 -13t20 -31t9 -37.5t5.5 -32.5q-8 4 -31 7t-50 5.5t-53 4t-41 2.5q-22 1 -39 2t-32 1h-29.5t-32.5 -1t-32 -2.5l-27.5 -3t-28 -2.5t-34.5 -1q-27 0 -44.5 2
t-29 8t-19 17.5t-14.5 29.5q-3 7 -5.5 15.5t-4.5 17.5q19 -6 33.5 -8t27.5 -1.5t27 2t32 1.5q-59 20 -83 70t-24 140q0 87 19.5 163t56.5 135.5t91 100.5t122 59l27 130h73l-25 -119q6 1 12.5 1h12.5h16t16 -1l25 119h72l-27 -131v0z" />
    <glyph glyph-name="A" unicode="A" horiz-adv-x="649" 
d="M164 347q0 -61 8 -111t26.5 -86.5t49.5 -56.5t77 -21h211v-72h-211v21v-21h-238v65h91q-58 39 -88 108t-30 164q0 125 44 204.5t121 110.5v103h72v-87q6 1 12.5 1h13.5h15t15 -1v87h72v-104q43 -17 74 -48.5t51 -73.5t29.5 -91.5t9.5 -102.5h-106q-1 78 -14 134t-44 88
v-222h-72v258q-15 3 -30 3q-7 0 -13.5 -0.5t-12.5 -1.5v-259h-72v227q-32 -29 -46.5 -83t-14.5 -132z" />
    <glyph glyph-name="S" unicode="S" horiz-adv-x="658" 
d="M461 338q0 51 -4.5 88t-12.5 65q-5 17 -18 35v-188h-72v234q-6 1 -12 1.5t-14 0.5q-6 0 -11.5 -0.5t-11.5 -1.5v-234h-72v189q-3 -3 -7 -11q-33 -63 -33 -179q0 -172 59 -213q31 -23 77 -23h232v-101h-490v87h79q-105 70 -105 250q0 107 38.5 187.5t110.5 119.5
q9 5 18.5 9t20.5 8v94h72v-80q6 1 12.5 1h12.5h24v79h72v-93q89 -29 138 -112t49 -208v-4h-152z" />
    <glyph glyph-name="D" unicode="D" horiz-adv-x="704" 
d="M378 318v280q-10 2 -19 3t-20 1q-3 0 -6 -0.5t-7 -0.5v-283h-34v277q-32 -9 -59.5 -29.5t-48 -52.5t-32.5 -76.5t-12 -99.5q0 -63 15.5 -117t44 -94t67 -64t85.5 -28h239v-34h-239h-4h-260v34h118q-73 38 -117.5 110.5t-44.5 166.5q0 55 17 107.5t48.5 95.5t77.5 73
t105 42v82h34v-77q8 1 16 1h16h10t10 -1v77h34v-81q51 -9 96 -34.5t79 -65t53.5 -91.5t19.5 -114v-7h-96q-3 110 -45.5 177.5t-106.5 92.5v-270h-34z" />
    <glyph glyph-name="F" unicode="F" horiz-adv-x="723" 
d="M391 318v273q-9 3 -18 4t-19 1h-11t-11 -2v-276h-40v262q-48 -26 -77 -88.5t-29 -156.5q0 -57 12 -110.5t34.5 -94.5t55.5 -65.5t74 -24.5h252v-40h-252h-2h-275v37h119q-75 40 -118 113t-43 167q0 52 16 102.5t47.5 92.5t78 72.5t107.5 43.5v84h40v-78q9 1 18.5 1h20.5
h20v77h40v-82q53 -10 98.5 -36t79 -65.5t52.5 -91.5t19 -113v-6h-143q-3 96 -31 161.5t-75 94.5v-256h-40z" />
    <glyph glyph-name="H" unicode="H" horiz-adv-x="796" 
d="M586 364v5q0 48 -17.5 86t-48.5 64v-155h-104v198h-18q-8 0 -16.5 -0.5t-17.5 -1.5v-196h-103v140q-23 -26 -37 -59.5t-14 -75.5q0 -45 14.5 -84.5t40 -69.5t60 -47.5t73.5 -17.5h283v-150h-631v131h106q-60 38 -96 96.5t-36 141.5q0 60 17 112.5t48 96t75 76t97 51.5
v104h103v-83q9 1 17.5 1h16.5h18v82h104v-99q57 -17 103.5 -49.5t79.5 -76.5t51 -98.5t18 -116.5v-5h-186z" />
    <glyph glyph-name="G" unicode="G" horiz-adv-x="752" 
d="M671 80v-80h-295h-324v68h135q-75 38 -114 109t-39 174q0 123 55.5 210.5t159.5 121.5v115h85v-97q10 1 20.5 1.5t21.5 0.5t21.5 -0.5t21.5 -1.5v97h85v-116q51 -18 90 -50.5t66.5 -75.5t42 -95t15.5 -110h-95q-2 74 -31 138.5t-88 100.5v-239h-85v269q-21 3 -43 3
q-23 0 -42 -3v-269h-85v242q-61 -35 -90.5 -99t-29.5 -143q0 -56 15 -105.5t45.5 -86t77 -58t109.5 -21.5h295z" />
    <glyph glyph-name="J" unicode="J" horiz-adv-x="656" 
d="M534 332v2q0 35 -7 70t-21 66.5t-35 57t-49 42.5v-238h-62v260q-8 1 -15 1.5t-15 0.5t-16 -0.5t-16 -1.5v-260h-63v237q-28 -16 -48.5 -41.5t-34.5 -57t-21 -68t-7 -75.5q0 -51 13.5 -98t40 -83t64.5 -57t87 -21h233v-68h-508v63h114q-61 37 -96.5 102.5t-35.5 159.5
q0 61 14.5 112.5t40.5 92.5t62.5 70.5t81.5 44.5v84h63v-70q8 2 17 2h18h13.5t13.5 -1v69h62v-80q94 -29 146.5 -111.5t52.5 -200.5v-5h-87z" />
    <glyph glyph-name="K" unicode="K" horiz-adv-x="686" 
d="M497 331q0 1 0.5 1t0.5 1q0 48 -13 90.5t-37 72.5v-165h-77v213q-14 3 -28 3q-15 0 -27 -3v-213h-77v167q-25 -29 -38 -72.5t-13 -96.5q0 -47 10.5 -86t30.5 -67.5t49 -44.5t65 -16h245v-115h-245h-287v99h76q-47 38 -72 95t-25 132q0 57 14 108t40.5 92t64 71.5
t85.5 46.5v108h77v-92q8 1 15 1.5t15 0.5q7 0 13 -0.5t12 -0.5v91h77v-105q49 -16 87 -46t64 -70.5t39 -89.5t13 -103q0 -5 -1 -7h-153z" />
    <glyph glyph-name="L" unicode="L" horiz-adv-x="797" 
d="M531 744q46 -9 84 -31.5t65 -60t42 -91.5t15 -125v-51q0 -10 -10 -10h-71q-11 0 -11 10v51q0 99 -30.5 152.5t-83.5 70.5v-274q0 -10 -10 -10h-72q-10 0 -10 10v283h-82v-283q0 -10 -10 -10h-72q-10 0 -10 10v274q-53 -17 -83.5 -70.5t-30.5 -152.5v-122q0 -63 12.5 -107
t35.5 -72t56 -40.5t74 -12.5h69h278q10 0 10 -10v-62q0 -10 -10 -10h-262h-14h-305q-9 0 -9 10v51q0 10 9 10h59q-45 32 -70 90.5t-25 152.5v122q0 71 15 125t42 91.5t65 60t84 31.5v100q0 10 10 10h72q10 0 10 -10v-94h82v94q0 10 10 10h72q10 0 10 -10v-100v0z" />
    <glyph glyph-name="colon" unicode=":" horiz-adv-x="866" 
d="M576 757q51 -8 94.5 -29.5t75 -60t49.5 -95t18 -132.5v-49q0 -10 -10 -10h-152q-10 0 -10 10v49q0 128 -65 159v-208q0 -10 -10 -10h-95q-10 0 -10 10v220h-57v-220q0 -10 -10 -10h-95q-10 0 -10 10v208q-63 -31 -63 -159v-119q0 -91 30 -131t93 -40h84h278q10 0 10 -10
v-130q0 -10 -10 -10h-288h-41h-316q-10 0 -10 10v108q0 10 10 10h52q-30 29 -47.5 76t-17.5 117v119q0 76 17.5 132.5t49 95t75 60t94.5 29.5v94q0 10 10 10h95q10 0 10 -10v-90h57v90q0 10 10 10h95q10 0 10 -10v-94v0z" />
    <glyph glyph-name="quotedbl" unicode="&#x22;" horiz-adv-x="740" 
d="M546 800q71 0 107.5 -36.5t36.5 -107.5v-238q0 -8 -5.5 -13t-13.5 -5h-95q-8 0 -13 5t-5 13v210q0 40 -40 40h-8v-250q0 -8 -5 -13t-13 -5h-80q-8 0 -13.5 5t-5.5 13v250h-47v-250q0 -8 -5 -13t-13 -5h-81q-8 0 -13 5t-5 13v250h-7q-40 0 -40 -41v-455q0 -40 40 -40h402
q8 0 13 -5t5 -13v-96q0 -8 -5 -13t-13 -5h-336h-8h-230q-8 0 -13.5 5t-5.5 13v81q0 8 5.5 13t13.5 5h41q-20 12 -30.5 34t-10.5 58v446q0 71 36.5 108t107.5 37h35v100q0 8 5 13t13 5h81q8 0 13 -5t5 -13v-100h47v100q0 8 5.5 13t13.5 5h80q8 0 13 -5t5 -13v-100h36v0z" />
    <glyph glyph-name="Z" unicode="Z" horiz-adv-x="767" 
d="M626 358v5q0 112 -36 178t-97 94v-277h-72v296q-8 1 -17 1.5t-18 0.5q-19 0 -37 -3v-295h-72v275q-62 -29 -98 -95t-36 -175q0 -76 18 -131.5t50 -91.5t76.5 -53t97.5 -17h4h266v-70h-567v65h125q-71 33 -111.5 105t-40.5 194q0 74 15.5 132t43.5 101t68 71.5t89 42.5
v101h72v-88q9 1 18.5 1h18.5h18t17 -1v88h72v-101q49 -15 89 -44t68 -72.5t43.5 -101.5t15.5 -130v-5h-83z" />
    <glyph glyph-name="X" unicode="X" horiz-adv-x="787" 
d="M577 363q0 144 -66 201v-206h-93v244q-6 1 -12.5 1h-13.5h-12.5t-12.5 -1v-244h-94v206q-20 -18 -32.5 -41t-19.5 -49t-9.5 -54.5t-3.5 -56.5q0 -43 8 -86t28.5 -77.5t56 -56t91.5 -21.5h274v-122h-592v108h91q-30 21 -50.5 49t-33 61t-18 69.5t-5.5 75.5q0 62 12 118
t38 101t66.5 78t98.5 50v103h94v-88h25h26v88h93v-103q58 -17 99 -49.5t67 -78t38 -101.5t12 -118h-150z" />
    <glyph glyph-name="C" unicode="C" horiz-adv-x="356" 
d="M261 628q36 -45 36 -132v-159h-32v159q0 78 -28 112q-15 18 -37 27v-298h-31v305q-4 1 -8 1h-8q-10 0 -15 -1v-305h-31v299q-24 -10 -37 -28q-29 -38 -29 -112v-317q0 -75 29 -113q27 -35 83 -35v-2v2h112v-31h-112h-135v29h51q-59 40 -59 145v322q0 85 35 132
q24 30 62 40v71h31v-65h15h16v65h31v-71q37 -10 61 -40z" />
    <glyph glyph-name="V" unicode="V" horiz-adv-x="405" 
d="M256 369v158q0 43 -9 67q-9 23 -21 34q-4 2 -5 3v-262h-38v273h-8h-9v-273h-38v262q-1 -1 -2 -1.5t-2 -1.5q-13 -10 -22 -34q-5 -12 -6.5 -28.5t-1.5 -38.5v-326q0 -22 1.5 -34t6.5 -24l10 -25t12 -18q11 -10 26 -13q7 -1 13 -1.5t12 -0.5h128v-85h-128h-193v69h77
q-29 20 -44 54.5t-15 86.5v317q0 98 42 152q9 12 19 20q11 10 28 19q8 5 17.5 8t20.5 6h1v75h38v-70h9h8v70h38v-74q22 -5 39 -15q31 -18 48 -39q42 -54 42 -152v-158h-94z" />
    <glyph glyph-name="B" unicode="B" horiz-adv-x="682" 
d="M534 361v62q0 60 -21.5 109t-63.5 78v-249h-80v279q-7 1 -13.5 1h-13.5h-13.5t-13.5 -1v-279h-80v249q-42 -29 -63.5 -78t-21.5 -109v-124q0 -46 13 -86t37.5 -69.5t60 -46.5t81.5 -17h236v-80h-236h-254v72h83q-57 35 -86 94t-29 133v124q0 46 12 89.5t34.5 80t56 65
t76.5 45.5v125h80v-108q7 1 13.5 1h13.5h13.5t13.5 -1v108h80v-125q43 -17 76.5 -45.5t56.5 -65t35 -80t12 -89.5v-62h-95z" />
    <glyph glyph-name="N" unicode="N" horiz-adv-x="676" 
d="M489 361v66q0 39 -10 71.5t-27 56.5v-194h-92v249q-5 1 -10.5 1h-10.5h-10.5t-10.5 -1v-249h-92v194q-37 -49 -37 -128v-132q0 -41 10.5 -75t30 -58.5t47.5 -38t62 -13.5h251v-110h-250h-1h-265v98h70q-98 67 -98 200v126q0 45 12 87.5t34.5 79t56 65t77.5 45.5v127h92
v-107h21h21v107h92v-127q43 -17 76.5 -45.5t56.5 -65t34.5 -79t11.5 -87.5v-63h-142z" />
    <glyph glyph-name="less" unicode="&#x3c;" horiz-adv-x="745" 
d="M481 698q52 -15 94 -46t72 -75.5t46.5 -100t16.5 -120.5h-157q0 72 -19.5 121.5t-52.5 78.5v-200h-86v237q-5 0 -9.5 0.5t-9.5 0.5q-15 0 -30 -3v-235h-86v191q-31 -30 -49.5 -77.5t-18.5 -113.5q0 -41 10 -82t31.5 -74.5t56 -55.5t83.5 -25h279v-119h-277h-2h-298v104
h83q-57 32 -89.5 90.5t-32.5 152.5q0 67 16.5 123.5t46 100t70.5 74.5t91 48v123h86v-105q8 1 17 1h18h14v104h86v-118v0z" />
    <glyph glyph-name="M" unicode="M" horiz-adv-x="742" 
d="M405 356v286q-8 2 -15.5 2h-15.5q-19 0 -37 -3v-285h-68v264q-39 -20 -72 -58q-69 -80 -69 -207t67 -206q33 -38 76.5 -59.5t96.5 -21.5h271v-68h-271h-283v60h109q-73 38 -110.5 111.5t-37.5 176.5q0 167 89 265q55 60 134 84v118h68v-105q11 1 21.5 1.5t21.5 0.5h12.5
t12.5 -1v104h68v-115q80 -21 137 -84q87 -96 87 -251v-9h-83q0 68 -16.5 119.5t-48.5 89.5t-76 58v-267h-68z" />
    <glyph glyph-name="greater" unicode="&#x3e;" horiz-adv-x="744" 
d="M134 366q0 -68 19.5 -122.5t52 -93t75.5 -59.5t91 -21h285v-70h-580v64h156q-43 15 -79 39.5t-61.5 59t-39.5 79.5t-14 100q0 61 16.5 114t46.5 95.5t72 73t93 47.5v116h70v-102q10 1 19.5 1.5t19.5 0.5h15.5t15.5 -1v101h71v-114q51 -15 93 -45t72 -72.5t46 -96
t16 -116.5h-95q0 97 -37.5 165t-94.5 103v-268h-71v296q-19 4 -42 4h-14.5t-13.5 -2v-298h-70v278q-59 -29 -96 -94t-37 -162z" />
    <glyph glyph-name="question" unicode="?" horiz-adv-x="731" 
d="M399 348v307q-18 3 -37 3q-8 0 -16 -0.5t-16 -1.5v-308h-68v282q-25 -15 -43 -38q-66 -83 -66 -240q0 -148 56 -232q17 -23 44.5 -41t71.5 -18h308v-26v-34v-1h-268h-312v35h1v26h126q-67 47 -103 123t-36 165q0 158 107 258q51 46 114 69v114h68v-99q11 1 20.5 1.5
t20.5 0.5h14.5t13.5 -1v98h69v-112q70 -24 126 -83q95 -98 95 -244v-3h-112q-3 164 -67 244q-9 11 -20 20.5t-22 17.5v-282h-69z" />
    <glyph glyph-name="hyphen" unicode="-" horiz-adv-x="891" 
d="M483 385v330q-28 7 -62 7h-14v-337h-51v330q-35 -9 -66.5 -29t-56.5 -55.5t-39.5 -88.5t-14.5 -127q0 -72 18 -135t52.5 -111.5t83.5 -79.5t112 -38h339v-51h-664v51h140q-57 23 -98 60t-67 81.5t-38.5 94t-12.5 98.5q0 55 17 115t54.5 113t97 93t143.5 55v113h51v-106
q10 1 20.5 1h21.5h17.5t16.5 -1v106h51v-111q73 -11 131 -41t98 -76.5t61.5 -108t21.5 -135.5v-17h-138q-4 115 -51.5 196t-122.5 116v-312h-51z" />
    <glyph glyph-name="plus" unicode="+" horiz-adv-x="778" 
d="M156 355q0 -61 18 -111.5t49 -86.5t73.5 -55.5t92.5 -19.5h276v-82h-276h-297v68h115q-69 41 -109 113t-40 174q0 64 17 119t47.5 98.5t72.5 74.5t92 47v106h68v-92q8 1 17 1h17h17.5t16.5 -1v92h68v-105q102 -30 164.5 -118t64.5 -222h-98q0 89 -34.5 154t-96.5 95v-249
h-68v270q-8 1 -16.5 1.5t-17.5 0.5t-17.5 -0.5t-16.5 -1.5v-270h-68v250q-61 -31 -96 -95.5t-35 -154.5z" />
    <glyph glyph-name="bar" unicode="|" horiz-adv-x="790" 
d="M202 355q0 -48 13 -89.5t38 -72t61 -48t81 -17.5h270v-128h-270h-311v106h78q-51 40 -81.5 101t-30.5 148q0 65 16.5 118.5t45 95.5t68 71.5t86.5 46.5v113h105v-91h24h24v91h106v-112q46 -17 85 -46.5t67.5 -71.5t45 -95.5t17.5 -119.5h-152q-2 113 -63 176v-176h-106
v225q-6 1 -12 1h-12h-12t-12 -1v-225h-105v175q-31 -31 -47.5 -76t-16.5 -99z" />
    <glyph glyph-name="underscore" unicode="_" horiz-adv-x="794" 
d="M422 328v311q-6 1 -11.5 1h-11.5h-13.5t-13.5 -2v-310h-75v272q-21 -21 -37 -52q-39 -77 -39 -219q0 -40 3.5 -74.5t9.5 -64.5q6 -24 19 -46.5t34 -40t50 -28.5t67 -11h274v-64h-260l-1 1v-1h-7h-323v56h111q-75 45 -114 117.5t-39 159.5q0 147 101 246q66 65 151 84v106
h75v-97h10.5t10.5 -1q8 1 14.5 1h14.5v97h75v-106q90 -21 153 -84q99 -98 99 -245v-5h-176q0 128 -24 193q-11 28 -24 48.5t-28 34.5v-277h-75z" />
    <glyph glyph-name="equal" unicode="=" horiz-adv-x="836" 
d="M446 387v345q-8 1 -17 1.5t-18 0.5h-11t-11 -1v-346h-38v342q-50 -9 -91 -33.5t-71 -64t-46.5 -94.5t-16.5 -125q0 -82 22.5 -149t61.5 -116t92.5 -77t115.5 -32h323v-38h-323h-309v38h159q-62 21 -106.5 58t-73 83.5t-42 99.5t-13.5 106q0 54 18.5 115t57.5 115t99 94.5
t143 52.5v114h38v-110q7 1 14 1h15h14.5t13.5 -1v110h38v-113q70 -9 128.5 -38.5t101 -76t66 -109t23.5 -139.5v-6.5t-1 -6.5h-93q-2 71 -20.5 128t-48.5 99t-70.5 70t-85.5 40v-337h-38z" />
    <glyph glyph-name="one" unicode="1" horiz-adv-x="748" 
d="M642 42v-42h-579v38h167q-43 21 -76.5 54t-56.5 73t-35 85t-12 90q0 61 18.5 115t51.5 97t79 73t100 43v107h43v-99q10 1 19.5 1.5t19.5 0.5h12.5t12.5 -1v98h43v-105q56 -13 102 -44.5t78.5 -76t50.5 -99t18 -111.5h-82q0 49 -11 97t-32 89.5t-52.5 73t-71.5 48.5v-308
h-43v320q-17 3 -35 3q-8 0 -14.5 -0.5t-14.5 -1.5v-321h-43v312q-41 -14 -72 -43.5t-52 -70t-31.5 -90t-10.5 -104.5q0 -66 21 -121.5t55 -95t76.5 -62t86.5 -22.5h270z" />
    <glyph glyph-name="two" unicode="2" horiz-adv-x="832" 
d="M121 366q0 -62 23 -116.5t63 -95t94 -64t115 -23.5h330v-67h-675v58h178q-44 20 -81 51t-63 70t-40.5 86.5t-14.5 100.5q0 62 19.5 118t54 102t82 79.5t103.5 50.5v116h71v-101q9 1 18 1h18h18t18 -1v101h71v-116q56 -17 103.5 -50.5t82 -79.5t54 -102t19.5 -118h-71
q0 48 -14 91.5t-39 79.5t-59.5 64t-75.5 44v-279h-71v297q-9 1 -18 1.5t-18 0.5t-18 -0.5t-18 -1.5v-297h-71v279q-41 -16 -75.5 -44t-59.5 -64t-39 -79.5t-14 -91.5z" />
    <glyph glyph-name="nine" unicode="9" horiz-adv-x="1066" 
d="M613 910q84 -12 157 -48t128 -91t86.5 -127.5t31.5 -157.5q0 -47 -17.5 -72t-50.5 -25q-51 0 -52 45q2 26 23 35q5 2 8 2h6q18 0 27 -13q8 1 12 12t4 46q0 34 -12 72t-34 75t-52.5 70.5t-67.5 60.5q-44 32 -94.5 52.5t-102.5 30.5v-443h-40v449q-10 1 -20 1.5t-20 0.5
h-20t-20 -2v-449h-40v444q-69 -14 -127.5 -49t-101.5 -89t-67.5 -125.5t-24.5 -156.5q0 -98 31.5 -175.5t86 -131.5t127.5 -82.5t156 -28.5h402v-40h-402h-415v40l271 -6q-74 20 -136 59t-107 94t-70.5 123.5t-25.5 147.5q0 96 31 174.5t85 136t127.5 93.5t159.5 48v149h40
v-145q10 1 20 1h20h20.5t19.5 -1v145h40v-149v0z" />
    <glyph glyph-name="eight" unicode="8" horiz-adv-x="781" 
d="M196 309q0 -52 13.5 -94t39 -71.5t61.5 -45.5t80 -16h272v-82h-272h-314v69h117q-69 32 -106 91.5t-37 148.5q0 115 61.5 193t174.5 104v93h70v-83q8 1 16.5 1h17.5h18t17 -1v83h69v-93q113 -26 175 -104t62 -193h-146q0 69 -24 119.5t-67 78.5v-198h-69v223q-17 3 -35 3
t-34 -3v-223h-70v198q-43 -28 -66.5 -78.5t-23.5 -119.5z" />
    <glyph glyph-name="seven" unicode="7" horiz-adv-x="460" 
d="M333 393v297q0 9 -6.5 15t-14.5 6h-20v-318h-41v318h-42v-318h-40v318h-21q-8 0 -14.5 -6t-6.5 -15v-601q0 -9 6.5 -15t14.5 -6h226v-68h-253q-33 0 -56 23.5t-23 55.5v621q0 33 23 56t56 23h48v85h40v-85h42v85h41v-85h47q33 0 56 -23t23 -56v-307h-85z" />
    <glyph glyph-name="six" unicode="6" horiz-adv-x="713" 
d="M169 324q0 -81 14 -137t39 -91t59.5 -50.5t74.5 -15.5h247v-30h-528v26l163 2q-40 16 -74.5 43.5t-59.5 65t-39.5 84.5t-14.5 103q0 66 18 121t50.5 96t77 67.5t97.5 36.5v85h36v-80q7 0 13.5 0.5t13.5 0.5q8 0 14.5 -0.5t12.5 -0.5v80h37v-85q52 -10 96 -36.5
t76.5 -67.5t50.5 -95t20 -118h-119q-2 115 -33.5 187.5t-90.5 97.5v-280h-37v290q-6 1 -12.5 1.5t-14.5 0.5q-7 0 -13.5 -0.5t-13.5 -1.5v-290h-36v280q-60 -25 -92 -98t-32 -191z" />
    <glyph glyph-name="five" unicode="5" horiz-adv-x="551" 
d="M522 634q-1 -3 -5 -11l-8.5 -17.5l-8.5 -18l-6 -12.5q-1 -1 -1 -1.5t-1 -1.5q12 -14 20.5 -32.5t11.5 -41.5q5 -33 0 -74t-15 -78l-4 -20l-3.5 -14t-1.5 -8q0 -8 -2 -16q-2 -9 -7 -7q-4 0 -13 7q-10 9 -15 14t-9 10q-8 12 -7 27q1 10 6 20t7 17q19 51 19 89q0 8 -1 25.5
t-12 30.5l-16.5 -34.5l-16 -35.5t-13.5 -32l-10 -25q-8 -22 -13 -45.5t-5 -28.5q-1 -5 -1 -8t-1 -5q-2 -8 -6 -6q-5 0 -11 6q-8 8 -12.5 11.5t-7.5 8.5q-8 9 -6 23q0 13 5.5 32t15.5 45q10 25 24 52q5 8 12 24t15 31q-20 -3 -42 -12l-16.5 -35l-16.5 -35.5t-14 -32.5
l-10 -25q-8 -22 -13 -45.5t-5 -28.5q-1 -5 -1 -8t-1 -5q-2 -8 -6 -6q-5 0 -11 6q-8 8 -12.5 11.5t-7.5 8.5q-8 9 -6 23q0 13 5.5 32t15.5 45q10 25 24 52v1q-35 -24 -65 -51.5t-50 -53.5q-13 -17 -30 -44t-32.5 -59t-26.5 -65t-11 -62t12 -46t31 -19q26 -1 63 0.5l88 3.5
q31 2 59 6q30 3 34 2q9 -2 8 -10q-2 -11 -7 -21q-3 -6 -6.5 -11.5t-8.5 -11.5q-10 -13 -21 -20q-52 -36 -179 -19v-1q-4 0 -6 2q-3 0 -5.5 0.5t-5.5 0.5q-2 1 -4 1t-4 1q-8 1 -14.5 1.5t-12.5 0.5q-15 1 -30.5 1t-29.5 -0.5t-23.5 -2t-12.5 -1.5q-12 -3 -17 -3q-10 0 -10 6
t4 15l9 19.5t8 12.5q9 10 26 15q15 4 44 4q-4 3 -7 5.5t-7 6.5q-17 14 -27 39t-10 52q0 72 41 156q20 41 45.5 78t57.5 70t61.5 55.5t55.5 37.5q13 8 34 17t47 14l17 31l17 30t14.5 23.5t9.5 10.5q13 -20 13 -40l-2 -10.5t-4 -12.5q-1 -3 -4.5 -10.5l-7.5 -16.5h6
q14 -1 29 -8l17.5 31.5l18 31t15 24.5t9.5 11q13 -20 13 -40l-2 -10.5t-4 -12.5z" />
    <glyph glyph-name="four" unicode="4" horiz-adv-x="824" 
d="M456 360v317q-23 3 -44 3q-23 0 -44 -3v-317h-44v308q-50 -15 -92 -44t-73 -69.5t-48 -90t-17 -104.5q0 -66 25 -124.5t68 -102t101 -68.5t124 -25h315v-40h-634v33h180q-51 18 -92.5 50t-70.5 74.5t-44.5 94t-15.5 108.5q0 63 20.5 120t57.5 103t87 78.5t109 47.5v111
h44v-102q11 1 22 1.5t22 0.5t22 -0.5t22 -1.5v102h44v-111q59 -15 109 -47.5t87 -78.5t57.5 -103t20.5 -120h-44q0 55 -17 104.5t-48 90t-73 69.5t-92 44v-308h-44z" />
    <glyph glyph-name="three" unicode="3" horiz-adv-x="719" 
d="M518 370v196q0 22 -20 40q-16 14 -33 17v-253h-81v253h-51v-253h-81v252q-16 -3 -31 -16q-20 -18 -20 -40v-393q0 -23 19 -41q20 -17 43 -17h383v-115h-606v97h64q-9 6 -18 15q-46 42 -46 90v405q0 47 47 89q46 43 94 43h71v94h81v-94h51v94h81v-94h73q48 0 94 -43
q47 -42 47 -89v-237h-161z" />
    <glyph glyph-name="zero" unicode="0" horiz-adv-x="717" 
d="M146 338q0 -77 17 -134t46.5 -95t68 -57t81.5 -19h261v-33h-261v7v-7h-290v28h170q-42 16 -76.5 44t-59.5 67t-39 89t-14 110q0 70 18 126.5t50 99t76.5 69.5t97.5 38v113h38v-107q7 0 14 0.5t15 0.5q7 0 14 -0.5t14 -1.5v108h38v-113q52 -11 95.5 -38.5t75.5 -69.5
t50.5 -98t20.5 -123h-96q-2 120 -43 194t-103 99v-293h-38v304q-7 1 -14 1.5t-14 0.5q-8 0 -15 -0.5t-14 -1.5v-304h-38v294q-64 -26 -105 -100t-41 -198z" />
    <glyph glyph-name="exclam" unicode="!" horiz-adv-x="854" 
d="M763 60v-60h-682v60h161q-87 42 -139.5 120.5t-52.5 189.5q0 65 19 121.5t52.5 102t80.5 78t103 50.5v118h81v-102q10 1 20 1.5t21 0.5q10 0 20 -0.5t20 -1.5v102h81v-118q56 -18 103 -50.5t81 -78t53 -102t19 -121.5h-81q0 47 -13 90.5t-36 80t-55 65.5t-71 47v-283h-81
v307q-20 3 -40 3q-22 0 -41 -3v-307h-81v283q-39 -18 -71 -47t-55 -65.5t-35.5 -80t-12.5 -90.5q0 -64 23 -120.5t63.5 -98.5t94 -66.5t115.5 -24.5h336z" />
    <glyph glyph-name="at" unicode="@" horiz-adv-x="861" 
d="M161 370q0 -60 21 -111.5t57.5 -89t85.5 -58.5t105 -21h337v-90h-683v77h136q-78 43 -124 116.5t-46 176.5q0 62 18 117t50.5 100t77.5 78t99 52v123h94v-102q11 1 20.5 1.5t20.5 0.5t21 -0.5t21 -1.5v102h94v-123q54 -19 99 -52t77.5 -78t50.5 -100t18 -117h-111
q0 81 -37 145t-97 99v-244h-94v277q-21 3 -42 3q-20 0 -41 -3v-277h-94v244q-60 -35 -97 -99t-37 -145z" />
    <glyph glyph-name="numbersign" unicode="#" horiz-adv-x="735" 
d="M594 363v199q0 28 -15 51q-14 24 -47 24h-38v-274h-91v274h-71v-274h-91v274h-39q-34 0 -47 -24q-14 -21 -14 -51v-398q0 -29 14 -51q13 -24 47 -24h437v-89h-439q-42 0 -77 23q-35 25 -54 62t-19 80v396q0 43 19 81q19 37 54 61q35 23 77 23h41v106h91v-106h71v106h91
v-106h40q42 0 77 -23q35 -24 54 -61q20 -40 20 -81v-198h-91z" />
    <glyph glyph-name="dollar" unicode="$" horiz-adv-x="875" 
d="M876 727q0 -6 -9 -27q-20 -42 -45 -77q3 -3 6 -5.5t7 -6.5q19 -25 19 -67q0 -43 -18 -94q-8 -20 -17 -40t-14 -29q-14 -23 -21 -40l-9 -22q-1 -3 -6.5 -7t-14 -7t-19 -5t-21.5 0q-18 3 -28.5 10.5t-6.5 20.5q2 9 12.5 17.5t26 24t33.5 41.5t35 69l3.5 22t1.5 15
q0 27 -12 47q-29 -37 -60 -72t-60 -72q-20 -25 -36 -47.5l-27.5 -39.5t-19 -27t-10.5 -10q-18 2 -27 0t-16 5q-8 11 -8 22q0 5 8 27q41 58 86.5 112.5l83.5 99.5q5 5 12.5 15l17.5 23q-23 6 -50 6h-9t-9 -1q-35 -48 -75 -92.5t-77 -92.5q-20 -25 -36 -47.5l-28 -39.5
l-19.5 -27t-10.5 -10q-17 2 -26.5 0t-15.5 5q-8 9 -8 22q0 8 8 27q41 58 86.5 112.5l82.5 99.5q4 4 8.5 9.5l10.5 13.5q-29 -10 -53 -21q-62 -27 -108 -66q-19 -10 -41 -27q-20 -14 -45.5 -36t-55.5 -54q-84 -72 -136 -205q-8 -17 -11 -32t-3 -28q-1 -23 7 -36.5t23 -20
t35 -7.5t43 1q21 2 60.5 7.5t107.5 19.5q10 2 18.5 3.5t16.5 3.5q7 2 14 3t13 3l14 2t15 2t15 1h14q75 0 98 -38l-73 -68q-42 19 -102 19q-41 0 -86 -6q-23 -2 -77 -10.5t-133 -5.5q-15 1 -34.5 2t-38.5 1t-36 -0.5t-27 -3.5q-2 0 -7 6t-9.5 15t-7.5 17.5t-1 12.5
q4 12 15 18q3 1 10 2t18 2q17 1 33 0t33 -3q-16 17 -29.5 38.5t-13.5 47.5q0 15 5 38q4 21 8 35t9.5 26.5t14.5 27l24 37.5q19 29 38.5 55t39.5 50q20 23 42 45.5t46 42.5q48 42 105 74q29 16 59.5 29t64.5 24q32 10 61 16.5t57 9.5q18 26 32 51t18 41q0 2 8 3.5t17.5 2
t19 -1t12.5 -4.5q8 -9 8 -22q0 -8 -8 -27q-5 -11 -10.5 -21t-12.5 -20q20 -2 37 -4.5l31 -4.5q19 28 34.5 55t19.5 44q1 2 8.5 3.5t17.5 2t19 -1t12 -4.5q9 -11 9 -22z" />
    <glyph glyph-name="quotedblleft" unicode="&#x201c;" horiz-adv-x="740" 
d="M546 800q71 0 107.5 -36.5t36.5 -107.5v-238q0 -8 -5.5 -13t-13.5 -5h-95q-8 0 -13 5t-5 13v210q0 40 -40 40h-8v-250q0 -8 -5 -13t-13 -5h-80q-8 0 -13.5 5t-5.5 13v250h-47v-250q0 -8 -5 -13t-13 -5h-81q-8 0 -13 5t-5 13v250h-7q-40 0 -40 -41v-455q0 -40 40 -40h402
q8 0 13 -5t5 -13v-96q0 -8 -5 -13t-13 -5h-336h-8h-230q-8 0 -13.5 5t-5.5 13v81q0 8 5.5 13t13.5 5h41q-20 12 -30.5 34t-10.5 58v446q0 71 36.5 108t107.5 37h35v100q0 8 5 13t13 5h81q8 0 13 -5t5 -13v-100h47v100q0 8 5.5 13t13.5 5h80q8 0 13 -5t5 -13v-100h36v0z" />
    <glyph glyph-name="quotedblright" unicode="&#x201d;" horiz-adv-x="740" 
d="M546 800q71 0 107.5 -36.5t36.5 -107.5v-238q0 -8 -5.5 -13t-13.5 -5h-95q-8 0 -13 5t-5 13v210q0 40 -40 40h-8v-250q0 -8 -5 -13t-13 -5h-80q-8 0 -13.5 5t-5.5 13v250h-47v-250q0 -8 -5 -13t-13 -5h-81q-8 0 -13 5t-5 13v250h-7q-40 0 -40 -41v-455q0 -40 40 -40h402
q8 0 13 -5t5 -13v-96q0 -8 -5 -13t-13 -5h-336h-8h-230q-8 0 -13.5 5t-5.5 13v81q0 8 5.5 13t13.5 5h41q-20 12 -30.5 34t-10.5 58v446q0 71 36.5 108t107.5 37h35v100q0 8 5 13t13 5h81q8 0 13 -5t5 -13v-100h47v100q0 8 5.5 13t13.5 5h80q8 0 13 -5t5 -13v-100h36v0z" />
    <glyph glyph-name="quoteleft" unicode="&#x2018;" horiz-adv-x="814" 
d="M175 362q0 -51 18 -95.5t49.5 -77.5t74 -52.5t90.5 -19.5h297v-117h-640v99h108q-62 43 -94.5 109.5t-32.5 153.5q0 58 17 110.5t47.5 96.5t73 77.5t92.5 53.5v114h88v-92q11 2 22 2h22h22t22 -2v92h88v-114q51 -20 93 -53.5t72.5 -77.5t47.5 -96.5t17 -110.5h-130
q0 63 -27 116t-73 86v-202h-88v241q-19 4 -44 4t-44 -4v-241h-88v202q-45 -33 -72.5 -86t-27.5 -116z" />
    <glyph glyph-name="quoteright" unicode="&#x2019;" horiz-adv-x="814" 
d="M175 362q0 -51 18 -95.5t49.5 -77.5t74 -52.5t90.5 -19.5h297v-117h-640v99h108q-62 43 -94.5 109.5t-32.5 153.5q0 58 17 110.5t47.5 96.5t73 77.5t92.5 53.5v114h88v-92q11 2 22 2h22h22t22 -2v92h88v-114q51 -20 93 -53.5t72.5 -77.5t47.5 -96.5t17 -110.5h-130
q0 63 -27 116t-73 86v-202h-88v241q-19 4 -44 4t-44 -4v-241h-88v202q-45 -33 -72.5 -86t-27.5 -116z" />
    <glyph glyph-name="e" unicode="e" horiz-adv-x="296" 
d="M265 43q18 -14 18 -24q0 -11 -11 -20l-110 -7l-14 -1q-25 -1 -45 -0.5t-43 4.5q-13 3 -17 11t-3 13t4.5 11t8.5 6q11 -1 26 -3.5t31 -4.5q-26 22 -40 75t-25 141q-7 63 -10.5 149.5t-3.5 199.5q0 122 43 154q6 4 10 6l-5 43v1q1 3 3 5q4 4 9 5q6 0 10 -4t5 -9v-1
q0 -3 1 -4q1 -5 1.5 -13t1.5 -17q2 1 6 1q6 0 14 -2q0 2 -0.5 3.5t-0.5 3.5q-2 11 -3 19.5t-1 10.5q0 6 4 9q3 4 9 4t10 -4q2 -2 3 -4v-1l4 -50q44 -25 69.5 -112.5t32.5 -245.5q0 -10 -8.5 -15.5t-17.5 -4.5q-9 0 -14.5 6.5t-6.5 15.5q-1 3 -1.5 23t-1.5 35
q-2 28 -4.5 53.5t-6.5 48.5t-9 45l-10 43l-7.5 23t-7.5 20l3 -31t4 -53q1 -9 1.5 -20t1.5 -22t1.5 -22.5t1.5 -23.5l5.5 -70.5t3.5 -48.5q0 -3 0.5 -4.5t0.5 -3.5v-2q0 -6 -4 -9q-3 -5 -9 -5q-5 0 -10 5q-4 6 -3 11t0 16.5l-3 35.5q-1 11 -1.5 23.5t-2.5 25.5
q-2 26 -4.5 51.5t-3.5 45.5q0 19 -1.5 40l-3 40.5t-3 35.5t-2.5 25q-11 9 -22 12q0 -6 1 -23t2.5 -38.5t3.5 -46t4 -46.5q3 -25 6 -59t5 -65v-2q3 -41 4 -58.5t0 -19.5l-3 -6t-9 -4h-1q-6 0 -9.5 4t-4.5 8v9q0 6 -0.5 16t-1.5 24q-2 16 -3 34.5t-3 38.5l-4 50t-3 46
q-4 45 -5.5 69.5t-1.5 30.5l-2 20l-3 -6q-5 -15 -5 -34l4 -198l5 -102q0 -77 8 -139.5t19 -116.5q8 -38 21.5 -62.5t28.5 -24.5q26 5 50.5 6.5t49.5 1.5z" />
    <glyph glyph-name="q" unicode="q" horiz-adv-x="544" 
d="M472 556q28 -17 46.5 -44.5t27.5 -61t8.5 -72.5t-11.5 -79q-6 -23 -20.5 -32.5t-32.5 -12.5q-9 -2 -17 0q-8 1 -11.5 3.5t2.5 5.5q8 5 14 11.5t10 14.5q13 37 17.5 73.5t1 68t-15 57t-30.5 42.5l-27 -63l-27.5 -69l-25.5 -69t-21 -63q-5 -4 -14 -6.5t-12 7.5q-1 9 8 39.5
t23 71.5l31 86.5l32 83.5q-17 7 -41 7q-6 0 -12 -0.5t-12 -1.5l-28.5 -65.5l-30.5 -74.5t-28.5 -76t-23.5 -71q-5 -4 -14 -6.5t-12 7.5q-1 8 7.5 37.5t22 69l30 84l31.5 82.5q-31 -12 -60.5 -33.5t-55.5 -50t-47 -62t-34 -70.5q-32 -86 -26.5 -151.5t46.5 -103.5
q18 -17 47.5 -27t67.5 -13q11 -2 22.5 -2h23.5q27 0 56.5 2.5t54.5 5.5l56 8h1q18 4 25 1.5t5.5 -7t-8.5 -9.5t-17 -7q-27 -5 -56 -9q-25 -3 -55.5 -5.5t-60.5 -2.5q-12 0 -23 0.5t-22 1.5q-2 0 -2.5 -0.5t-2.5 -0.5q-30 -2 -61 -1t-56 3q-29 2 -56 5q-10 1 -17.5 5.5t-9 9
t5 7.5t25.5 1h1q11 -1 24 -2q11 -1 26 -2t32 -2q-13 5 -24 12.5t-21 15.5q-28 23 -45.5 55.5t-23.5 71t-0.5 81.5t23.5 87q18 43 44 81t59 68t72 50t82 27l16.5 40.5t8.5 17.5q4 4 11 4t14 -3t11 -8t1 -11q-3 -5 -8 -14.5t-10 -21.5h14q25 -2 48 -9l18 43.5t9 19.5q4 4 11 4
t14 -3t11 -8t1 -11q-5 -8 -12.5 -24z" />
  </font>
</defs>
</svg>
