<svg id="Layer_1" data-name="Layer 1" xmlns="http://www.w3.org/2000/svg" xmlns:xlink="http://www.w3.org/1999/xlink" viewBox="0 0 380.46 49.32"><defs><style>.cls-1{fill:none;}.cls-2{fill:#fff;}.cls-3{clip-path:url(#clip-path);}.cls-4{fill:#e1001f;}.cls-5{fill:#f6d928;}.cls-6{clip-path:url(#clip-path-2);}.cls-7{clip-path:url(#clip-path-3);}.cls-8{fill:#d50037;}</style><clipPath id="clip-path" transform="translate(0.46 -4.63)"><path class="cls-1" d="M-.46,14.54C32-4.79,71,5.41,86.72,34.24h0C65.15,25.8,43.76,36,39,54Z"/></clipPath><clipPath id="clip-path-2" transform="translate(0.46 -4.63)"><path class="cls-2" d="M100.22,19.29C75.61,4.64,46,12.37,34.11,34.23h0c16.36-6.39,32.58,1.34,36.23,15Z"/></clipPath><clipPath id="clip-path-3" transform="translate(0.46 -4.63)"><path class="cls-1" d="M100.22,19.29C75.61,4.64,46,12.37,34.11,34.23h0c16.36-6.39,32.58,1.34,36.23,15Z"/></clipPath></defs><title>logo</title><g class="cls-3"><path d="M12.68,27.67c23.24-18.86,56.39-15.46,74,6.57h0C71,5.41,32-4.79-.46,14.54Z" transform="translate(0.46 -4.63)"/><path class="cls-4" d="M25.81,40.81c14-18.41,41.3-21.8,60.91-6.57h0c-17.65-22-50.8-25.43-74-6.57Z" transform="translate(0.46 -4.63)"/><path class="cls-5" d="M39,54c4.81-18,26.2-28.15,47.77-19.71h0C67.11,19,39.84,22.4,25.81,40.81Z" transform="translate(0.46 -4.63)"/></g><path class="cls-2" d="M100.22,19.29C75.61,4.64,46,12.37,34.11,34.23h0c16.36-6.39,32.58,1.34,36.23,15Z" transform="translate(0.46 -4.63)"/><g class="cls-6"><g class="cls-7"><path class="cls-8" d="M78.48,18.87a12.83,12.83,0,0,0-.69,1.58c-.07.17-.12.35-.18.52a9,9,0,0,0-1.2-.43,11.61,11.61,0,0,0-1.28-.26l.36-.44a14,14,0,0,0,1-1.45,18.47,18.47,0,0,0-2.86-.28,7.35,7.35,0,0,0,.52-.89,6.24,6.24,0,0,0,.36-.92c.88.23,1.8.46,2.75.68A10.37,10.37,0,0,0,78,15c.45.11.91.21,1.4.3s1,.18,1.46.24a14.47,14.47,0,0,0-1.52,1.93c1,.2,2,.38,3,.54a8.09,8.09,0,0,0-.71,1,7.68,7.68,0,0,0-.55,1,14.3,14.3,0,0,0-2.57-1.06" transform="translate(0.46 -4.63)"/><path class="cls-8" d="M47,22.63a1.52,1.52,0,0,0,.17.56,1.4,1.4,0,0,0,.1.16c-.37.16-.73.35-1.1.55s-.73.41-1.08.63l.09-.23a4,4,0,0,0,.16-.69c-.78.5-1.52,1-2.23,1.58a1.14,1.14,0,0,0,0-.35.5.5,0,0,0-.09-.26c.72-.51,1.48-1,2.26-1.53a1.05,1.05,0,0,0-.3-.57l1.12-.75L47.28,21A4,4,0,0,0,47,22c.8-.5,1.61-1,2.42-1.44a1.82,1.82,0,0,0-.09.5,1.24,1.24,0,0,0,0,.44A19.62,19.62,0,0,0,47,22.63" transform="translate(0.46 -4.63)"/><path class="cls-8" d="M68.32,33.48A15.5,15.5,0,0,0,69,31.91l.18-.51q.39.29.81.54a9,9,0,0,0,.87.45l-.36.44a15.43,15.43,0,0,0-1,1.44,17.89,17.89,0,0,0,1.71.94c-.24.3-.46.61-.68.94s-.4.67-.59,1a7.14,7.14,0,0,0-1.28-1.46c-.37.7-.7,1.41-1,2.15a4.12,4.12,0,0,0-.61-.64,4.64,4.64,0,0,0-.69-.5,19.44,19.44,0,0,0,1.23-1.83,9.35,9.35,0,0,0-1.69-.81,8.36,8.36,0,0,0,.5-.88c.14-.3.28-.62.39-.93.5.42,1,.83,1.56,1.21" transform="translate(0.46 -4.63)"/><path class="cls-8" d="M45.49,29.52a1.72,1.72,0,0,0-.18-.54.65.65,0,0,0-.09-.16l1-.23,1-.26-.09.23a3.61,3.61,0,0,0-.16.69l2-.38a1.93,1.93,0,0,0-.08.47,1.47,1.47,0,0,0,0,.47,13.62,13.62,0,0,0-2,.06,2.9,2.9,0,0,0,.23.85c-.31,0-.63,0-.95,0s-.64.06-1,.11a2.92,2.92,0,0,0,.22-.79,18.59,18.59,0,0,0-2,.48.89.89,0,0,0,0-.32.57.57,0,0,0-.08-.29l2.05-.43" transform="translate(0.46 -4.63)"/><path class="cls-8" d="M54.61,33.31a25.08,25.08,0,0,1,4.62,2Q63,23.78,66.68,12.26a46.63,46.63,0,0,0-8.43,2Q56.44,23.78,54.61,33.31Z" transform="translate(0.46 -4.63)"/><path class="cls-8" d="M88.29,31.22c-16.24-14.23-40.5-12.67-54.18,3h0c14.58-12.57,36.14-11,48.16,3Z" transform="translate(0.46 -4.63)"/></g></g><path class="cls-2" d="M127.59,19.56a3,3,0,0,1-.29,1.36,2.79,2.79,0,0,1-.8,1,3.53,3.53,0,0,1-1.21.61,5.2,5.2,0,0,1-1.51.21,4.64,4.64,0,0,1-1.51-.23,3.92,3.92,0,0,1-1.21-.66,3,3,0,0,1-.8-1,3,3,0,0,1-.3-1.36v-.36a1.17,1.17,0,0,1,.09-.39,2.26,2.26,0,0,1,.23-.47,1.93,1.93,0,0,1,.35-.46,1.59,1.59,0,0,1,.46-.32l.69.75a1.29,1.29,0,0,0-.25.29,1,1,0,0,0-.14.28,1.28,1.28,0,0,0-.07.28,2.51,2.51,0,0,0,0,.27l0,.24a2.65,2.65,0,0,0,.14.87,1.58,1.58,0,0,0,.46.65,2.06,2.06,0,0,0,.78.41,3.82,3.82,0,0,0,1.14.14,4,4,0,0,0,1-.12,2.32,2.32,0,0,0,.79-.38,1.73,1.73,0,0,0,.52-.62,1.79,1.79,0,0,0,.19-.86V15.38a1.66,1.66,0,0,0-.12-.57,3.55,3.55,0,0,0-.32-.65,4.63,4.63,0,0,0-.47-.65,3.53,3.53,0,0,0-.6-.56,2.74,2.74,0,0,0-.67-.41,1.73,1.73,0,0,0-.7-.15,2.16,2.16,0,0,0-.88.14,1.45,1.45,0,0,0-.51.36,1.09,1.09,0,0,0-.23.47,2.25,2.25,0,0,0-.06.49,2.39,2.39,0,0,0,0,.43.77.77,0,0,0,.08.27,1.12,1.12,0,0,0,.18.23l.32.31-.51.92a4.28,4.28,0,0,1-.61-.41,1.78,1.78,0,0,1-.4-.43,1.63,1.63,0,0,1-.21-.56,3.94,3.94,0,0,1-.08-.76,2.8,2.8,0,0,1,.18-1,2.3,2.3,0,0,1,.57-.81,2.59,2.59,0,0,1,.9-.53,3.61,3.61,0,0,1,1.23-.19,2.61,2.61,0,0,1,.94.16,3.2,3.2,0,0,1,.79.44,4.5,4.5,0,0,1,.67.64,7.92,7.92,0,0,1,.57.76V9.52h-1.84v-1h3Z" transform="translate(0.46 -4.63)"/><path class="cls-2" d="M137.29,18.62c0,2.75-1.28,4.12-3.82,4.12a4.1,4.1,0,0,1-1.66-.31,3.32,3.32,0,0,1-1.2-.87,3.53,3.53,0,0,1-.72-1.27,4.81,4.81,0,0,1-.24-1.53v-.64a2.78,2.78,0,0,1,.28-1.17,7.7,7.7,0,0,1,.7-1.19l.89.45c-.09.18-.17.36-.24.53a3.32,3.32,0,0,0-.18.53,4.52,4.52,0,0,0-.11.47,2.9,2.9,0,0,0,0,.38v.69a5.4,5.4,0,0,0,.13,1.21,2.2,2.2,0,0,0,.43.88,1.81,1.81,0,0,0,.78.55,3.37,3.37,0,0,0,1.18.18,3.5,3.5,0,0,0,1.13-.16,1.94,1.94,0,0,0,.78-.53,2.47,2.47,0,0,0,.45-1,5.92,5.92,0,0,0,.15-1.43v-1a4.37,4.37,0,0,0-.17-1.24,5.34,5.34,0,0,0-.47-1,5.78,5.78,0,0,0-.66-.9l-.76-.83-.75-.83a5.62,5.62,0,0,1-.66-.88,4.91,4.91,0,0,1-.47-1,4,4,0,0,1-.17-1.19V8.49h1.2V9.6a2.79,2.79,0,0,0,.31,1.32,6.86,6.86,0,0,0,.78,1.15c.32.37.65.74,1,1.12a11.54,11.54,0,0,1,1,1.19,6,6,0,0,1,.78,1.41,4.43,4.43,0,0,1,.32,1.72Z" transform="translate(0.46 -4.63)"/><path class="cls-2" d="M152.37,18.27a3.3,3.3,0,0,1-.13.89,5,5,0,0,1-.37,1,7.53,7.53,0,0,1-.58,1,4.68,4.68,0,0,1-.77.83,3.89,3.89,0,0,1-.92.59,2.49,2.49,0,0,1-1,.22V21.63a1.67,1.67,0,0,0,1-.33,3.21,3.21,0,0,0,.8-.84,4.24,4.24,0,0,0,.53-1.09,3.45,3.45,0,0,0,.2-1.08V16.87a4.22,4.22,0,0,0-.24-1.54,2.63,2.63,0,0,0-.6-.94,2,2,0,0,0-.76-.47,2.62,2.62,0,0,0-.73-.13,2.47,2.47,0,0,0-.78.14,2.18,2.18,0,0,0-.76.47,2.48,2.48,0,0,0-.57.88,3.52,3.52,0,0,0-.23,1.35v2.09h-1.3V16.63a3.53,3.53,0,0,0-.22-1.35,2.48,2.48,0,0,0-.57-.88,2,2,0,0,0-.74-.47,2.47,2.47,0,0,0-.77-.14,3.14,3.14,0,0,0-.86.13,1.86,1.86,0,0,0-.75.47,2.42,2.42,0,0,0-.53.94,4.77,4.77,0,0,0-.21,1.54v1.47a3.39,3.39,0,0,0,.08.68,4.2,4.2,0,0,0,.23.74,5.41,5.41,0,0,0,.38.71,3.19,3.19,0,0,0,.5.6,2.47,2.47,0,0,0,.62.41,1.8,1.8,0,0,0,.73.15v1.11a3,3,0,0,1-1.17-.22,3.47,3.47,0,0,1-.95-.6,4.26,4.26,0,0,1-.75-.84,5.58,5.58,0,0,1-.54-1,5.16,5.16,0,0,1-.32-1,3.78,3.78,0,0,1-.11-.89V16.87a12.79,12.79,0,0,1,.17-2.05,8.15,8.15,0,0,1,.59-2A6.87,6.87,0,0,1,141,11.14a6.61,6.61,0,0,1,1.81-1.38,9.58,9.58,0,0,1,2.59-.93,16.41,16.41,0,0,1,3.5-.34V9.62a15.35,15.35,0,0,0-2.93.26,9.86,9.86,0,0,0-2.3.74,6,6,0,0,0-1.7,1.15,5.37,5.37,0,0,0-1.1,1.49l.73-.21,1.16-.26.85,0a2.14,2.14,0,0,1,1.55.9,3.7,3.7,0,0,1,.55,1.24,3.67,3.67,0,0,1,.64-1.24,2.51,2.51,0,0,1,.76-.65,2.3,2.3,0,0,1,.81-.25l.78,0a4.32,4.32,0,0,1,1.34.21,3.24,3.24,0,0,1,1.17.69,3.62,3.62,0,0,1,.82,1.27,5.35,5.35,0,0,1,.3,1.91Z" transform="translate(0.46 -4.63)"/><path class="cls-2" d="M167.46,16.69a11.09,11.09,0,0,1-.09,1.4,9,9,0,0,1-.28,1.39,6.34,6.34,0,0,1-.49,1.26,4.2,4.2,0,0,1-.73,1,3.12,3.12,0,0,1-1,.71,2.91,2.91,0,0,1-1.25.25V21.63a1.6,1.6,0,0,0,1.1-.41,3.23,3.23,0,0,0,.79-1.09,6.48,6.48,0,0,0,.47-1.54,10.43,10.43,0,0,0,.16-1.78V14.12c0-.36,0-.71,0-1.07a8.91,8.91,0,0,0-.09-1.05,6.34,6.34,0,0,0-.21-.93,2.56,2.56,0,0,0-.37-.76,1.68,1.68,0,0,0-.59-.5,1.76,1.76,0,0,0-.86-.19,2.88,2.88,0,0,0-1.23.22,1.53,1.53,0,0,0-.64.59,2,2,0,0,0-.24.81c0,.3,0,.6,0,.89v5.46a8.9,8.9,0,0,1-.19,1.86,5.44,5.44,0,0,1-.63,1.65,3.45,3.45,0,0,1-1.15,1.19,3.21,3.21,0,0,1-1.75.45,3.33,3.33,0,0,1-1.84-.46,3.37,3.37,0,0,1-1.14-1.23,5.78,5.78,0,0,1-.58-1.73,13,13,0,0,1-.16-2V13.52c0-.4,0-.8.06-1.21a6.26,6.26,0,0,1,.22-1.16,4.45,4.45,0,0,1,.42-1,3.05,3.05,0,0,1,.68-.83,2.81,2.81,0,0,1,1-.56,4.15,4.15,0,0,1,1.35-.22,6,6,0,0,1,.83.05,2.85,2.85,0,0,1,.87.28,2.8,2.8,0,0,1,.79.62,3.25,3.25,0,0,1,.62,1.09,5.12,5.12,0,0,1,.53-1.12,2.25,2.25,0,0,1,.61-.62,2,2,0,0,1,.73-.26,6,6,0,0,1,.89-.06,3.5,3.5,0,0,1,1.32.23,2.84,2.84,0,0,1,.93.61,3.12,3.12,0,0,1,.62.91,4.89,4.89,0,0,1,.36,1.1,9.43,9.43,0,0,1,.17,1.22c0,.42,0,.83,0,1.23Zm-6.89-4.56a3.09,3.09,0,0,0-.13-.89,2.41,2.41,0,0,0-.42-.81,2.08,2.08,0,0,0-.74-.59,2.74,2.74,0,0,0-1.13-.22,2,2,0,0,0-1.25.38,2.63,2.63,0,0,0-.74,1,5.17,5.17,0,0,0-.35,1.38c-.05.51-.08,1-.08,1.52v3.3a15.72,15.72,0,0,0,.1,1.94,4.31,4.31,0,0,0,.39,1.39,1.83,1.83,0,0,0,.74.83,2.58,2.58,0,0,0,2.32,0,2,2,0,0,0,.74-.79,4.17,4.17,0,0,0,.42-1.25,9.36,9.36,0,0,0,.13-1.67Z" transform="translate(0.46 -4.63)"/><path class="cls-2" d="M177.86,18.76a4.15,4.15,0,0,1-1,3,3.45,3.45,0,0,1-2.65,1,4.85,4.85,0,0,1-1.68-.27,3.58,3.58,0,0,1-1.26-.78,3.31,3.31,0,0,1-.79-1.18,4.06,4.06,0,0,1-.28-1.51v-.88a2,2,0,0,1,.13-.66,3.35,3.35,0,0,1,.32-.66,3.82,3.82,0,0,1,.43-.6,3.63,3.63,0,0,1,.42-.44l.73.69a1.89,1.89,0,0,0-.56.78,2.38,2.38,0,0,0-.17.89V19a3,3,0,0,0,.18,1.06,2.37,2.37,0,0,0,1.37,1.38,3.21,3.21,0,0,0,1.16.19,2.59,2.59,0,0,0,1.15-.22,1.72,1.72,0,0,0,.71-.62,2.4,2.4,0,0,0,.35-.93,6.15,6.15,0,0,0,.1-1.17V10.51a.65.65,0,0,0-.11-.34,1.06,1.06,0,0,0-.32-.31,2,2,0,0,0-.49-.22,2.23,2.23,0,0,0-.65-.08,1.55,1.55,0,0,0-.55.08,1.32,1.32,0,0,0-.41.22.85.85,0,0,0-.26.31.72.72,0,0,0-.09.34V14h-1V10.51a.89.89,0,0,0-.3-.74,1.36,1.36,0,0,0-.83-.23.73.73,0,0,0-.46.15,2.73,2.73,0,0,0-.34.34,3.75,3.75,0,0,1-.33.35.56.56,0,0,1-.39.15,1.22,1.22,0,0,1-.69-.22,3.64,3.64,0,0,1-.58-.52V8.57l.28.24.35.23a1.51,1.51,0,0,0,.36.18.81.81,0,0,0,.32.07.47.47,0,0,0,.3-.11c.1-.08.21-.16.32-.26a2.31,2.31,0,0,1,.36-.25.73.73,0,0,1,.41-.12,2.11,2.11,0,0,1,1.1.26,1.84,1.84,0,0,1,.66.67,3.31,3.31,0,0,1,.88-.67,2.13,2.13,0,0,1,1-.26,3.61,3.61,0,0,1,1,.14,3.68,3.68,0,0,1,.9.4,2.41,2.41,0,0,1,.65.62,1.44,1.44,0,0,1,.24.8Z" transform="translate(0.46 -4.63)"/><path class="cls-2" d="M197.06,13.83a4.14,4.14,0,0,1-.11.87,6.53,6.53,0,0,1-.28,1,8.83,8.83,0,0,1-.44,1,10,10,0,0,1-.58.95,5.45,5.45,0,0,1-.69.81,3.5,3.5,0,0,1-.77.6l-.82-.75a5.05,5.05,0,0,0,1-1,6.81,6.81,0,0,0,.74-1.2,6.5,6.5,0,0,0,.48-1.26,4.3,4.3,0,0,0,.16-1.11V12.57a4.6,4.6,0,0,0-.15-1.23,2.7,2.7,0,0,0-.44-.9,1.73,1.73,0,0,0-.64-.54,1.67,1.67,0,0,0-.79-.19,2.57,2.57,0,0,0-1.08.2,1.62,1.62,0,0,0-.65.56,2.28,2.28,0,0,0-.32.83,6.49,6.49,0,0,0-.08,1v2.89h-1.2V12.32a8.45,8.45,0,0,0-.07-1,3.1,3.1,0,0,0-.28-.86,1.55,1.55,0,0,0-.59-.6,2,2,0,0,0-1-.22,1.68,1.68,0,0,0-.91.23,1.78,1.78,0,0,0-.59.6,2.78,2.78,0,0,0-.32.85,5.15,5.15,0,0,0-.09,1v2.94h-1.22V12.27a7.52,7.52,0,0,0-.05-1,2,2,0,0,0-.24-.81,1.43,1.43,0,0,0-.62-.57,2.65,2.65,0,0,0-1.17-.22,1.74,1.74,0,0,0-.93.25,2,2,0,0,0-.64.68,3.36,3.36,0,0,0-.37,1,6.19,6.19,0,0,0-.11,1.25v1.27a5.59,5.59,0,0,0,.35,2,6.21,6.21,0,0,0,1,1.73,7.54,7.54,0,0,0,1.59,1.42,10.35,10.35,0,0,0,2,1.07,13.28,13.28,0,0,0,2.39.67,15,15,0,0,0,2.63.23h1.33v1.25h-1.3a16.21,16.21,0,0,1-3.38-.33,13.14,13.14,0,0,1-2.8-.92,9.5,9.5,0,0,1-2.21-1.37,9.3,9.3,0,0,1-1.61-1.73,7.69,7.69,0,0,1-1-2,6.72,6.72,0,0,1-.36-2.07l0-1.33a6.91,6.91,0,0,1,.2-1.68,4,4,0,0,1,.6-1.35,3,3,0,0,1,1.05-.9,3.33,3.33,0,0,1,1.51-.32,3.87,3.87,0,0,1,.86.08,2.22,2.22,0,0,1,.72.29,3,3,0,0,1,.64.61,5.75,5.75,0,0,1,.59,1,4.84,4.84,0,0,1,.43-1,2.27,2.27,0,0,1,.52-.64,1.67,1.67,0,0,1,.65-.33,3.3,3.3,0,0,1,.8-.1,3.06,3.06,0,0,1,.77.1,1.84,1.84,0,0,1,.66.32,2.4,2.4,0,0,1,.57.61,5,5,0,0,1,.48,1,3.75,3.75,0,0,1,.58-1,2.64,2.64,0,0,1,.68-.59,2.3,2.3,0,0,1,.74-.28,3.16,3.16,0,0,1,.74-.08,3.41,3.41,0,0,1,1.32.25,3.08,3.08,0,0,1,1.07.76,3.75,3.75,0,0,1,.72,1.22,5,5,0,0,1,.26,1.66Z" transform="translate(0.46 -4.63)"/><path class="cls-2" d="M211.4,18.65a4.43,4.43,0,0,1-.13.93,3.7,3.7,0,0,1-.35.92,4.44,4.44,0,0,1-.6.86,3.54,3.54,0,0,1-.86.72,4.56,4.56,0,0,1-1.12.48,5.11,5.11,0,0,1-1.4.18,4.23,4.23,0,0,1-1.31-.19,4.46,4.46,0,0,1-1.08-.51,4.05,4.05,0,0,1-.86-.73,4.75,4.75,0,0,1-.63-.88,5,5,0,0,1-.38-.91,3.11,3.11,0,0,1-.13-.87V17.56a4.37,4.37,0,0,1,.29-1.57,3.83,3.83,0,0,1,.86-1.36,4.45,4.45,0,0,1,1.47-1,6.27,6.27,0,0,1,2.11-.43l.93-1.87a1.47,1.47,0,0,0-.12-.53,2.48,2.48,0,0,0-.36-.57,2.17,2.17,0,0,0-.55-.45,1.38,1.38,0,0,0-.7-.18,2.23,2.23,0,0,0-1.4.36,1.12,1.12,0,0,0-.45.92v1.2h-1.17V10.9a1.94,1.94,0,0,1,.26-1,2.72,2.72,0,0,1,.68-.76,3.22,3.22,0,0,1,1-.49,3.55,3.55,0,0,1,1.12-.18,3.72,3.72,0,0,1,1.27.2,2.52,2.52,0,0,1,.91.57,2.41,2.41,0,0,1,.54.9,3.67,3.67,0,0,1,.18,1.19l-.91,2a4.51,4.51,0,0,1,1,.48,4.46,4.46,0,0,1,1,.84,4.55,4.55,0,0,1,.72,1.19,4,4,0,0,1,.27,1.51Zm-1.31-1.31a3.44,3.44,0,0,0-.67-2,2.86,2.86,0,0,0-.85-.73,2.37,2.37,0,0,0-1.18-.29h-.62a3.17,3.17,0,0,0-1.23.23,2.61,2.61,0,0,0-.92.65,2.86,2.86,0,0,0-.57,1,4.08,4.08,0,0,0-.2,1.35v.9a3.41,3.41,0,0,0,.19,1.11,2.92,2.92,0,0,0,.58,1,3.06,3.06,0,0,0,1,.74,3.19,3.19,0,0,0,1.39.28,3.63,3.63,0,0,0,1.38-.23,2.55,2.55,0,0,0,1-.65,2.79,2.79,0,0,0,.56-1,4.21,4.21,0,0,0,.19-1.26Z" transform="translate(0.46 -4.63)"/><path class="cls-2" d="M220.73,19.54a3.1,3.1,0,0,1-.31,1.45,2.83,2.83,0,0,1-.84,1,3.52,3.52,0,0,1-1.22.57,5.63,5.63,0,0,1-1.44.18,4.47,4.47,0,0,1-1.53-.25,3.57,3.57,0,0,1-1.21-.72,3.26,3.26,0,0,1-1.08-2.43,4.68,4.68,0,0,1,.14-1.19,3.59,3.59,0,0,1,.93-1.67,8.12,8.12,0,0,1,.69-.61l.8.8c-.23.22-.43.41-.59.58a2.51,2.51,0,0,0-.39.55,2.49,2.49,0,0,0-.22.65,5.84,5.84,0,0,0-.06.91A2.21,2.21,0,0,0,215,21a2.65,2.65,0,0,0,1.91.59,3.79,3.79,0,0,0,1-.14,2.4,2.4,0,0,0,.79-.43,1.91,1.91,0,0,0,.51-.68,2.11,2.11,0,0,0,.18-.89v-7.9a2.13,2.13,0,0,0-.16-.81,1.65,1.65,0,0,0-.43-.61,1.93,1.93,0,0,0-.68-.41,2.83,2.83,0,0,0-.9-.14,3,3,0,0,0-.94.14,2.15,2.15,0,0,0-.73.4,1.73,1.73,0,0,0-.48.62,2,2,0,0,0-.16.82,2.29,2.29,0,0,0,.08.64,2.73,2.73,0,0,0,.35.75l-1,.73a3.47,3.47,0,0,1-.69-2.12,3.27,3.27,0,0,1,.24-1.27,2.73,2.73,0,0,1,.69-1,3.16,3.16,0,0,1,1.07-.63,4.15,4.15,0,0,1,1.4-.23,5,5,0,0,1,1.42.2,3.45,3.45,0,0,1,1.14.6,2.87,2.87,0,0,1,.76,1,3.14,3.14,0,0,1,.27,1.34Z" transform="translate(0.46 -4.63)"/><path class="cls-2" d="M236,18.27a3.3,3.3,0,0,1-.13.89,5,5,0,0,1-.37,1,7.53,7.53,0,0,1-.58,1,4.68,4.68,0,0,1-.77.83,3.89,3.89,0,0,1-.92.59,2.5,2.5,0,0,1-1.05.22V21.63a1.68,1.68,0,0,0,1-.33,3.38,3.38,0,0,0,.8-.84,4.59,4.59,0,0,0,.53-1.09,3.45,3.45,0,0,0,.2-1.08V16.87a4.22,4.22,0,0,0-.24-1.54,2.63,2.63,0,0,0-.6-.94,2.13,2.13,0,0,0-.76-.47,2.62,2.62,0,0,0-.73-.13,2.47,2.47,0,0,0-.78.14,2.1,2.1,0,0,0-.76.47,2.48,2.48,0,0,0-.57.88,3.52,3.52,0,0,0-.23,1.35v2.09h-1.3V16.63a3.74,3.74,0,0,0-.22-1.35,2.48,2.48,0,0,0-.57-.88,2,2,0,0,0-.74-.47,2.47,2.47,0,0,0-.77-.14,3.14,3.14,0,0,0-.86.13,1.86,1.86,0,0,0-.75.47,2.42,2.42,0,0,0-.53.94,4.77,4.77,0,0,0-.21,1.54v1.47a3.39,3.39,0,0,0,.08.68,4.2,4.2,0,0,0,.23.74,5.41,5.41,0,0,0,.38.71,3.19,3.19,0,0,0,.5.6,2.47,2.47,0,0,0,.62.41,1.8,1.8,0,0,0,.73.15v1.11a3,3,0,0,1-1.17-.22,3.47,3.47,0,0,1-1-.6,4.26,4.26,0,0,1-.75-.84,5.58,5.58,0,0,1-.54-1,5.16,5.16,0,0,1-.32-1,3.78,3.78,0,0,1-.11-.89V16.87a12.79,12.79,0,0,1,.17-2.05,8.15,8.15,0,0,1,.59-2,6.87,6.87,0,0,1,1.13-1.73,6.61,6.61,0,0,1,1.81-1.38,9.58,9.58,0,0,1,2.59-.93,16.41,16.41,0,0,1,3.5-.34V9.62a15.35,15.35,0,0,0-2.93.26,9.86,9.86,0,0,0-2.3.74,6,6,0,0,0-1.7,1.15,5.37,5.37,0,0,0-1.1,1.49l.73-.21,1.16-.26.85,0a2.14,2.14,0,0,1,1.55.9,3.7,3.7,0,0,1,.55,1.24,3.86,3.86,0,0,1,.63-1.24,2.67,2.67,0,0,1,.77-.65,2.18,2.18,0,0,1,.81-.25l.78,0a4.32,4.32,0,0,1,1.34.21,3.24,3.24,0,0,1,1.17.69,3.62,3.62,0,0,1,.82,1.27,5.35,5.35,0,0,1,.3,1.91Z" transform="translate(0.46 -4.63)"/><path class="cls-2" d="M245.41,19a4.05,4.05,0,0,1-.28,1.56,3.23,3.23,0,0,1-1.95,1.94,4.11,4.11,0,0,1-1.52.26,4.33,4.33,0,0,1-1.67-.3,3.41,3.41,0,0,1-1.22-.84,3.78,3.78,0,0,1-.74-1.26,5,5,0,0,1-.25-1.58v-2a4.46,4.46,0,0,1,.25-1.41,4.37,4.37,0,0,1,.74-1.29,3.94,3.94,0,0,1,1.22-.94,3.7,3.7,0,0,1,1.67-.36,3.85,3.85,0,0,1,.66.06,2.55,2.55,0,0,1,.69.23,2.71,2.71,0,0,1,.65.49,2.86,2.86,0,0,1,.55.82V11.28a1.21,1.21,0,0,0-.22-.7,1.9,1.9,0,0,0-.57-.52,3,3,0,0,0-.79-.33,3.72,3.72,0,0,0-.88-.11,4.07,4.07,0,0,0-1,.11,2.38,2.38,0,0,0-.7.28,1.5,1.5,0,0,0-.42.41,1,1,0,0,0-.14.5V12H238.2V10.92a1.63,1.63,0,0,1,.3-.93,3.1,3.1,0,0,1,.8-.77,4.64,4.64,0,0,1,2.47-.73,4.85,4.85,0,0,1,1.38.2,4.25,4.25,0,0,1,1.17.57,3.22,3.22,0,0,1,.81.88,2.21,2.21,0,0,1,.3,1.14Zm-1.29-2.23a3.88,3.88,0,0,0-.2-1.31,2.28,2.28,0,0,0-.52-.89,2.15,2.15,0,0,0-.79-.51,3.21,3.21,0,0,0-1-.15,2.18,2.18,0,0,0-1.1.26,2.6,2.6,0,0,0-.8.67,3.09,3.09,0,0,0-.48.94,3.4,3.4,0,0,0-.16,1v2a3.72,3.72,0,0,0,.18,1.19,2.55,2.55,0,0,0,.52.91,2.3,2.3,0,0,0,.82.59,2.94,2.94,0,0,0,1.09.2,2.23,2.23,0,0,0,1.81-.75,3.29,3.29,0,0,0,.62-2.14Z" transform="translate(0.46 -4.63)"/><path class="cls-2" d="M255.2,18.62q0,4.13-3.82,4.12a4.1,4.1,0,0,1-1.66-.31,3.32,3.32,0,0,1-1.2-.87,3.53,3.53,0,0,1-.72-1.27,4.81,4.81,0,0,1-.24-1.53v-.64a2.78,2.78,0,0,1,.28-1.17,7.7,7.7,0,0,1,.7-1.19l.89.45c-.09.18-.17.36-.24.53a4.75,4.75,0,0,0-.18.53,4.52,4.52,0,0,0-.11.47,2.9,2.9,0,0,0,0,.38v.69A4.85,4.85,0,0,0,249,20a2.06,2.06,0,0,0,.42.88,1.81,1.81,0,0,0,.78.55,3.37,3.37,0,0,0,1.18.18,3.5,3.5,0,0,0,1.13-.16,1.94,1.94,0,0,0,.78-.53,2.33,2.33,0,0,0,.45-1,5.92,5.92,0,0,0,.15-1.43v-1a4.37,4.37,0,0,0-.17-1.24,5.34,5.34,0,0,0-.47-1,5.78,5.78,0,0,0-.66-.9l-.75-.83c-.26-.27-.51-.55-.76-.83a5.62,5.62,0,0,1-.66-.88,4.91,4.91,0,0,1-.47-1,4,4,0,0,1-.17-1.19V8.49H251V9.6a2.79,2.79,0,0,0,.31,1.32,6.86,6.86,0,0,0,.78,1.15c.32.37.65.74,1,1.12a11.54,11.54,0,0,1,1,1.19,6.47,6.47,0,0,1,.79,1.41,4.63,4.63,0,0,1,.31,1.72Z" transform="translate(0.46 -4.63)"/><path class="cls-2" d="M264.88,18.92a4.6,4.6,0,0,1-.25,1.58,3.31,3.31,0,0,1-.73,1.2,3.14,3.14,0,0,1-1.19.77,4.53,4.53,0,0,1-1.63.27,4.38,4.38,0,0,1-1.53-.26,3.39,3.39,0,0,1-1.21-.77,3.28,3.28,0,0,1-.8-1.21,4.21,4.21,0,0,1-.28-1.59V11.17a3.43,3.43,0,0,1,.17-1.12,2.15,2.15,0,0,1,.48-.78,1.85,1.85,0,0,1,.71-.46,2.58,2.58,0,0,1,.88-.15,3.94,3.94,0,0,1,.77.07l.76.16.74.16a4.25,4.25,0,0,0,.69.07,4.39,4.39,0,0,0,.53,0,3,3,0,0,0,.49-.13,4.13,4.13,0,0,0,.52-.19l.61-.27v1a4.76,4.76,0,0,1-1.14.53,3.79,3.79,0,0,1-1.12.16,4.91,4.91,0,0,1-.67-.05l-.63-.13-.63-.13a4.62,4.62,0,0,0-.65-.05,1.33,1.33,0,0,0-.62.1,1.08,1.08,0,0,0-.42.3,1.19,1.19,0,0,0-.24.46,2.12,2.12,0,0,0-.07.57v3.1a3.85,3.85,0,0,1,.62-.74,3.59,3.59,0,0,1,.69-.48,2.7,2.7,0,0,1,.69-.24,2.91,2.91,0,0,1,.64-.07,3.8,3.8,0,0,1,1.63.32,3.56,3.56,0,0,1,1.94,2.07,4.14,4.14,0,0,1,.25,1.43Zm-1.29-2.25a3.59,3.59,0,0,0-.16-1.11,2.56,2.56,0,0,0-.47-.88,2.16,2.16,0,0,0-.78-.58,2.7,2.7,0,0,0-1.1-.21h-.49a2.2,2.2,0,0,0-.56.1,1.89,1.89,0,0,0-.54.25,1.82,1.82,0,0,0-.48.48,2.51,2.51,0,0,0-.33.79,4.39,4.39,0,0,0-.13,1.17v2.22A3.6,3.6,0,0,0,258.7,20a2.78,2.78,0,0,0,.46.87,2.37,2.37,0,0,0,.79.59,2.71,2.71,0,0,0,1.11.21,2.33,2.33,0,0,0,1.9-.73,3.13,3.13,0,0,0,.63-2.11Z" transform="translate(0.46 -4.63)"/><path class="cls-2" d="M275.1,18.76a4.2,4.2,0,0,1-1,3,3.47,3.47,0,0,1-2.65,1,5,5,0,0,1-1.69-.27,3.54,3.54,0,0,1-1.25-.78,3.19,3.19,0,0,1-.79-1.18,3.87,3.87,0,0,1-.28-1.51v-.88a1.8,1.8,0,0,1,.13-.66,3.35,3.35,0,0,1,.32-.66,4.55,4.55,0,0,1,.42-.6,3,3,0,0,1,.43-.44l.72.69a2,2,0,0,0-.56.78,2.58,2.58,0,0,0-.16.89V19a3,3,0,0,0,.18,1.06,2.29,2.29,0,0,0,.52.83,2.36,2.36,0,0,0,.85.55,3.21,3.21,0,0,0,1.16.19,2.62,2.62,0,0,0,1.15-.22,1.69,1.69,0,0,0,.7-.62,2.58,2.58,0,0,0,.36-.93,7.13,7.13,0,0,0,.09-1.17V10.51a.57.57,0,0,0-.11-.34,1,1,0,0,0-.31-.31,2.09,2.09,0,0,0-.5-.22,2.12,2.12,0,0,0-.64-.08,1.61,1.61,0,0,0-.56.08,1.45,1.45,0,0,0-.41.22.82.82,0,0,0-.25.31.72.72,0,0,0-.09.34V14h-1V10.51a.89.89,0,0,0-.3-.74,1.33,1.33,0,0,0-.82-.23.69.69,0,0,0-.46.15A2.81,2.81,0,0,0,268,10a2.72,2.72,0,0,1-.32.35.56.56,0,0,1-.39.15,1.2,1.2,0,0,1-.69-.22,2.94,2.94,0,0,1-.58-.52V8.57l.28.24.35.23a1.51,1.51,0,0,0,.36.18.8.8,0,0,0,.31.07.51.51,0,0,0,.31-.11c.1-.08.21-.16.32-.26a2.8,2.8,0,0,1,.35-.25.75.75,0,0,1,.41-.12,2.17,2.17,0,0,1,1.11.26,1.74,1.74,0,0,1,.65.67,3.36,3.36,0,0,1,.89-.67,2.09,2.09,0,0,1,1-.26,3.58,3.58,0,0,1,1.88.54,2.37,2.37,0,0,1,.64.62,1.38,1.38,0,0,1,.25.8Z" transform="translate(0.46 -4.63)"/><path class="cls-2" d="M294.29,13.83a4.08,4.08,0,0,1-.1.87,8,8,0,0,1-.28,1,7.44,7.44,0,0,1-.45,1,8.24,8.24,0,0,1-.57.95,5.45,5.45,0,0,1-.69.81,3.54,3.54,0,0,1-.78.6l-.81-.75a5,5,0,0,0,1-1,6.86,6.86,0,0,0,.75-1.2,7.16,7.16,0,0,0,.47-1.26,4.35,4.35,0,0,0,.17-1.11V12.57a4.22,4.22,0,0,0-.16-1.23,2.69,2.69,0,0,0-.43-.9,1.82,1.82,0,0,0-.64-.54,1.67,1.67,0,0,0-.79-.19,2.57,2.57,0,0,0-1.08.2,1.56,1.56,0,0,0-.65.56,2.12,2.12,0,0,0-.32.83,6.49,6.49,0,0,0-.08,1v2.89h-1.2V12.32a6.8,6.8,0,0,0-.08-1,2.56,2.56,0,0,0-.28-.86,1.52,1.52,0,0,0-.58-.6,2,2,0,0,0-1-.22,1.62,1.62,0,0,0-1.5.83,2.54,2.54,0,0,0-.32.85,5.15,5.15,0,0,0-.09,1v2.94h-1.22V12.27c0-.33,0-.65-.05-1a1.88,1.88,0,0,0-.25-.81,1.38,1.38,0,0,0-.62-.57,2.57,2.57,0,0,0-1.16-.22,1.75,1.75,0,0,0-.94.25,2,2,0,0,0-.63.68,3.36,3.36,0,0,0-.37,1,6.17,6.17,0,0,0-.12,1.25l0,1.27a5.59,5.59,0,0,0,.35,2,6.21,6.21,0,0,0,1,1.73,7.73,7.73,0,0,0,1.58,1.42,11,11,0,0,0,2,1.07,13.52,13.52,0,0,0,2.39.67,15.13,15.13,0,0,0,2.63.23h1.33v1.25h-1.29a16.21,16.21,0,0,1-3.38-.33,13,13,0,0,1-2.8-.92,9.79,9.79,0,0,1-2.22-1.37,9.23,9.23,0,0,1-1.6-1.73,7.09,7.09,0,0,1-1-2,6.72,6.72,0,0,1-.36-2.07l0-1.33a6.92,6.92,0,0,1,.19-1.68,4,4,0,0,1,.61-1.35,2.92,2.92,0,0,1,1-.9,3.41,3.41,0,0,1,1.52-.32,3.72,3.72,0,0,1,.85.08,2.06,2.06,0,0,1,.72.29,2.61,2.61,0,0,1,.64.61,5.19,5.19,0,0,1,.59,1,5.42,5.42,0,0,1,.43-1,2.29,2.29,0,0,1,.53-.64,1.61,1.61,0,0,1,.65-.33,3.24,3.24,0,0,1,.8-.1,3.12,3.12,0,0,1,.77.1,1.84,1.84,0,0,1,.66.32,2.37,2.37,0,0,1,.56.61,4.47,4.47,0,0,1,.48,1,3.76,3.76,0,0,1,.59-1,2.64,2.64,0,0,1,.68-.59,2.25,2.25,0,0,1,.73-.28,3.19,3.19,0,0,1,.75-.08,3.36,3.36,0,0,1,1.31.25,3.12,3.12,0,0,1,1.08.76,3.57,3.57,0,0,1,.71,1.22,4.78,4.78,0,0,1,.26,1.66Z" transform="translate(0.46 -4.63)"/><path class="cls-2" d="M303.69,17.11a14.26,14.26,0,0,1-.15,1.84,7.53,7.53,0,0,1-.46,1.71,4.22,4.22,0,0,1-.86,1.34,2.64,2.64,0,0,1-1.35.74l-.11-1.11a.88.88,0,0,0,.63-.29,2.53,2.53,0,0,0,.52-.87,7,7,0,0,0,.36-1.41,13.14,13.14,0,0,0,.13-1.89V13.72a11,11,0,0,0-.12-1.72,4,4,0,0,0-.38-1.29,2,2,0,0,0-.75-.81A2.26,2.26,0,0,0,300,9.62a2.77,2.77,0,0,0-1.31.28,2,2,0,0,0-.79.82,4.21,4.21,0,0,0-.4,1.31,13.17,13.17,0,0,0-.1,1.74v3.4a17.68,17.68,0,0,0,.09,1.88,8.59,8.59,0,0,0,.26,1.4,2.49,2.49,0,0,0,.42.88.69.69,0,0,0,.55.3l0,1.11a2.38,2.38,0,0,1-1-.39,3,3,0,0,1-.7-.72,3.9,3.9,0,0,1-.47-1,6.81,6.81,0,0,1-.29-1.12,11,11,0,0,1-.15-1.19c0-.41,0-.8,0-1.19V13.81a10.71,10.71,0,0,1,.07-1.25,8,8,0,0,1,.22-1.22,5.68,5.68,0,0,1,.43-1.11,3.45,3.45,0,0,1,.7-.9,3.15,3.15,0,0,1,1-.61,3.83,3.83,0,0,1,1.38-.23,4.5,4.5,0,0,1,1.4.2,3.25,3.25,0,0,1,1,.54,2.91,2.91,0,0,1,.69.83,5,5,0,0,1,.43,1.06,7,7,0,0,1,.22,1.24c0,.44.06.89.06,1.36Z" transform="translate(0.46 -4.63)"/><path class="cls-2" d="M317.2,19a4.09,4.09,0,0,1-.25,1.45,3.44,3.44,0,0,1-.75,1.19,3.31,3.31,0,0,1-1.2.81,4.29,4.29,0,0,1-1.62.29,4.09,4.09,0,0,1-2.77-1,3.48,3.48,0,0,1-.76-1,2.58,2.58,0,0,1-.27-1.11v-.82a2,2,0,0,1,.1-.64,2.77,2.77,0,0,1,.29-.6,3,3,0,0,1,.42-.52,2.55,2.55,0,0,1,.48-.4l.69.78a1.51,1.51,0,0,0-.53.72,2.25,2.25,0,0,0-.16.82v.44a2.33,2.33,0,0,0,.15.82,2.28,2.28,0,0,0,.47.73,2.22,2.22,0,0,0,.79.52,2.67,2.67,0,0,0,1.1.2,3,3,0,0,0,1.19-.2,2,2,0,0,0,.78-.55,2.23,2.23,0,0,0,.43-.84,3.85,3.85,0,0,0,.13-1v-.93a3.77,3.77,0,0,0-.16-1.11,3.56,3.56,0,0,0-.42-.95,2.59,2.59,0,0,0-.66-.66,1.55,1.55,0,0,0-.84-.24H312V14h1.73a2.26,2.26,0,0,0,.69-.11,1.73,1.73,0,0,0,.57-.34,1.71,1.71,0,0,0,.39-.55,1.87,1.87,0,0,0,.15-.78v-.67a1.74,1.74,0,0,0-.16-.7,2.08,2.08,0,0,0-.4-.61,2,2,0,0,0-.56-.44,1.39,1.39,0,0,0-.64-.17V8.49a2.66,2.66,0,0,1,1,.23,3.8,3.8,0,0,1,1,.64,3.55,3.55,0,0,1,.75,1,2.53,2.53,0,0,1,.3,1.22v.4a3,3,0,0,1-.14,1,2.22,2.22,0,0,1-1,1.26,4.14,4.14,0,0,1-.79.38,3.42,3.42,0,0,1,1.1.54,2.91,2.91,0,0,1,.7.79,3.69,3.69,0,0,1,.37,1,6.44,6.44,0,0,1,.1,1.19Z" transform="translate(0.46 -4.63)"/><path class="cls-2" d="M331.24,14c0-.63,0-1.22-.06-1.76a4.68,4.68,0,0,0-.29-1.4,2,2,0,0,0-.69-.92,2.08,2.08,0,0,0-1.27-.34c-1.55,0-2.33.92-2.33,2.77v5.73h-1.29V12.39a3.17,3.17,0,0,0-.58-2.11A2.24,2.24,0,0,0,323,9.62a2,2,0,0,0-1.21.34,2.17,2.17,0,0,0-.7.93,5.12,5.12,0,0,0-.32,1.43c-.05.55-.08,1.16-.08,1.82v2.44c0,.4,0,.81.06,1.21A8.8,8.8,0,0,0,320.9,19a6.32,6.32,0,0,0,.32,1,3.63,3.63,0,0,0,.48.85,2.19,2.19,0,0,0,.65.57,1.61,1.61,0,0,0,.82.2v1.11a3.11,3.11,0,0,1-1.34-.26,3,3,0,0,1-1-.71,3.9,3.9,0,0,1-.71-1,6.56,6.56,0,0,1-.46-1.29,8.14,8.14,0,0,1-.24-1.41,13.63,13.63,0,0,1-.07-1.42V14.14c0-.47,0-.93,0-1.39a8.78,8.78,0,0,1,.19-1.31,5.94,5.94,0,0,1,.38-1.17,3.13,3.13,0,0,1,.66-.93,2.83,2.83,0,0,1,1-.62A3.85,3.85,0,0,1,323,8.49a3.66,3.66,0,0,1,1,.14,2.75,2.75,0,0,1,.8.41,2.92,2.92,0,0,1,.61.65,4.69,4.69,0,0,1,.48.86,4.1,4.1,0,0,1,.45-.86A2.56,2.56,0,0,1,327,9a2.69,2.69,0,0,1,.85-.41,4.1,4.1,0,0,1,1.11-.14,3.82,3.82,0,0,1,1.33.22,2.86,2.86,0,0,1,1,.61,3.37,3.37,0,0,1,.66.91,5.69,5.69,0,0,1,.41,1.14,7.29,7.29,0,0,1,.2,1.28c0,.44.06.89.06,1.34l0,2.62a13.22,13.22,0,0,1-.08,1.38,9.21,9.21,0,0,1-.26,1.39,7.92,7.92,0,0,1-.47,1.29,4.24,4.24,0,0,1-.71,1.07,3.07,3.07,0,0,1-1,.73,3,3,0,0,1-1.29.27V21.63a1.5,1.5,0,0,0,1.09-.44,3.31,3.31,0,0,0,.77-1.16,6.87,6.87,0,0,0,.46-1.64,10.57,10.57,0,0,0,.16-1.87Z" transform="translate(0.46 -4.63)"/><path class="cls-2" d="M351.69,13.83a4.84,4.84,0,0,1-.1.87,8.1,8.1,0,0,1-.29,1,8.83,8.83,0,0,1-.44,1,8.31,8.31,0,0,1-.58.95,5.45,5.45,0,0,1-.69.81,3.28,3.28,0,0,1-.77.6l-.82-.75a4.79,4.79,0,0,0,1-1,6.81,6.81,0,0,0,.74-1.2,6.5,6.5,0,0,0,.48-1.26,4.35,4.35,0,0,0,.17-1.11V12.57a4.58,4.58,0,0,0-.16-1.23,2.7,2.7,0,0,0-.44-.9,1.73,1.73,0,0,0-.64-.54,1.64,1.64,0,0,0-.78-.19,2.51,2.51,0,0,0-1.08.2,1.65,1.65,0,0,0-.66.56,2.11,2.11,0,0,0-.31.83,5.45,5.45,0,0,0-.09,1v2.89H345V12.32a6.81,6.81,0,0,0-.07-1,2.8,2.8,0,0,0-.28-.86,1.59,1.59,0,0,0-.58-.6,2,2,0,0,0-1-.22,1.71,1.71,0,0,0-.91.23,1.78,1.78,0,0,0-.59.6,2.53,2.53,0,0,0-.31.85,4.43,4.43,0,0,0-.1,1v2.94H340V12.27c0-.33,0-.65,0-1a2,2,0,0,0-.25-.81,1.38,1.38,0,0,0-.62-.57,2.63,2.63,0,0,0-1.16-.22A1.75,1.75,0,0,0,337,10a2,2,0,0,0-.64.68,3.36,3.36,0,0,0-.37,1,7,7,0,0,0-.11,1.25l0,1.27a5.38,5.38,0,0,0,.35,2,5.76,5.76,0,0,0,1,1.73,7.48,7.48,0,0,0,1.58,1.42,10.35,10.35,0,0,0,2,1.07,13.28,13.28,0,0,0,2.39.67,15,15,0,0,0,2.63.23h1.33v1.25h-1.29a16.31,16.31,0,0,1-3.39-.33,13.14,13.14,0,0,1-2.8-.92,9.71,9.71,0,0,1-2.21-1.37,9.3,9.3,0,0,1-1.61-1.73,7.69,7.69,0,0,1-1-2,7,7,0,0,1-.36-2.07l0-1.33a6.91,6.91,0,0,1,.2-1.68,3.8,3.8,0,0,1,.61-1.35,2.92,2.92,0,0,1,1-.9,3.38,3.38,0,0,1,1.52-.32,3.78,3.78,0,0,1,.85.08,2.06,2.06,0,0,1,.72.29,2.8,2.8,0,0,1,.64.61,5.19,5.19,0,0,1,.59,1,4.84,4.84,0,0,1,.43-1,2.27,2.27,0,0,1,.52-.64,1.71,1.71,0,0,1,.66-.33,3.16,3.16,0,0,1,.79-.1,3.2,3.2,0,0,1,.78.1,2,2,0,0,1,.66.32,2.56,2.56,0,0,1,.56.61,5,5,0,0,1,.48,1,3.75,3.75,0,0,1,.58-1,2.82,2.82,0,0,1,.68-.59,2.39,2.39,0,0,1,.74-.28,3.19,3.19,0,0,1,.75-.08,3.39,3.39,0,0,1,1.31.25,3,3,0,0,1,1.07.76,3.75,3.75,0,0,1,.72,1.22,5,5,0,0,1,.26,1.66Z" transform="translate(0.46 -4.63)"/><path class="cls-2" d="M361.09,19.54a3.1,3.1,0,0,1-.32,1.45,2.7,2.7,0,0,1-.83,1,3.6,3.6,0,0,1-1.22.57,5.68,5.68,0,0,1-1.44.18,4.48,4.48,0,0,1-1.54-.25,3.67,3.67,0,0,1-1.21-.72,3.28,3.28,0,0,1-.79-1.08,3.17,3.17,0,0,1-.28-1.35,4.71,4.71,0,0,1,.13-1.19,3.55,3.55,0,0,1,.38-.93,3.17,3.17,0,0,1,.55-.74,8.27,8.27,0,0,1,.7-.61l.8.8c-.24.22-.43.41-.6.58a2.51,2.51,0,0,0-.39.55,2.16,2.16,0,0,0-.21.65,4.74,4.74,0,0,0-.07.91,2.21,2.21,0,0,0,.62,1.68,2.63,2.63,0,0,0,1.91.59,3.72,3.72,0,0,0,1-.14,2.45,2.45,0,0,0,.8-.43,1.77,1.77,0,0,0,.5-.68,2.11,2.11,0,0,0,.18-.89v-7.9a2.12,2.12,0,0,0-.15-.81,1.8,1.8,0,0,0-.44-.61,1.85,1.85,0,0,0-.68-.41,2.74,2.74,0,0,0-.9-.14,3,3,0,0,0-.93.14,2.19,2.19,0,0,0-.74.4,1.7,1.7,0,0,0-.47.62,2,2,0,0,0-.17.82,2.3,2.3,0,0,0,.09.64,2.46,2.46,0,0,0,.35.75l-1,.73a3.42,3.42,0,0,1-.7-2.12,3.27,3.27,0,0,1,.24-1.27,2.85,2.85,0,0,1,.69-1,3.2,3.2,0,0,1,1.08-.63,4.11,4.11,0,0,1,1.4-.23,5,5,0,0,1,1.41.2,3.27,3.27,0,0,1,1.14.6,2.75,2.75,0,0,1,.76,1,3.14,3.14,0,0,1,.28,1.34Z" transform="translate(0.46 -4.63)"/><path class="cls-2" d="M363.14,10.63h2.79V8.49h1.2v2.14h3.27v1.12h-3.15a3.92,3.92,0,0,0,.47,1.25,6.91,6.91,0,0,0,.71.95q.39.42.81.81a6.78,6.78,0,0,1,.76.84,3.84,3.84,0,0,1,.56,1,3.94,3.94,0,0,1,.22,1.41v1a4,4,0,0,1-.25,1.43,3.2,3.2,0,0,1-.72,1.17,3.46,3.46,0,0,1-1.19.8,4.36,4.36,0,0,1-1.64.29,3.7,3.7,0,0,1-1.67-.36,3.9,3.9,0,0,1-1.2-.9,3.71,3.71,0,0,1-.72-1.18,3.13,3.13,0,0,1-.25-1.18V18a1.81,1.81,0,0,1,.19-.75,4.94,4.94,0,0,1,.47-.75,6.37,6.37,0,0,1,.6-.66,4.13,4.13,0,0,1,.58-.46l.67.78a3,3,0,0,0-.4.35,3.47,3.47,0,0,0-.39.47,2.62,2.62,0,0,0-.3.51,1.34,1.34,0,0,0-.11.51v1.09a2.51,2.51,0,0,0,.16.87,2.54,2.54,0,0,0,.47.83,2.59,2.59,0,0,0,.79.63,2.33,2.33,0,0,0,1.11.25,3.27,3.27,0,0,0,1.17-.18,1.93,1.93,0,0,0,.76-.53,2,2,0,0,0,.41-.82,4.17,4.17,0,0,0,.14-1.05l0-1a3.14,3.14,0,0,0-.22-1.23,4,4,0,0,0-.55-1A10,10,0,0,0,368,15c-.27-.27-.53-.56-.79-.87a5.87,5.87,0,0,1-.69-1,4.16,4.16,0,0,1-.45-1.33h-2.89Z" transform="translate(0.46 -4.63)"/><path class="cls-2" d="M380,17.11a11.42,11.42,0,0,1-.15,1.84,7,7,0,0,1-.46,1.71,4.22,4.22,0,0,1-.86,1.34,2.64,2.64,0,0,1-1.35.74l-.11-1.11a.88.88,0,0,0,.63-.29,2.53,2.53,0,0,0,.52-.87,7,7,0,0,0,.36-1.41,13.14,13.14,0,0,0,.13-1.89V13.72a12.54,12.54,0,0,0-.11-1.72,4.27,4.27,0,0,0-.39-1.29,2,2,0,0,0-.75-.81,2.26,2.26,0,0,0-1.19-.28,2.77,2.77,0,0,0-1.31.28,2,2,0,0,0-.79.82,4,4,0,0,0-.39,1.31,11.58,11.58,0,0,0-.11,1.74v3.4a17.68,17.68,0,0,0,.09,1.88,8.59,8.59,0,0,0,.26,1.4,2.49,2.49,0,0,0,.42.88.71.71,0,0,0,.55.3l0,1.11a2.45,2.45,0,0,1-.95-.39,3.19,3.19,0,0,1-.7-.72,3.9,3.9,0,0,1-.47-1,6.81,6.81,0,0,1-.29-1.12,9,9,0,0,1-.14-1.19c0-.41,0-.8,0-1.19V13.81c0-.41,0-.82.07-1.25a8,8,0,0,1,.22-1.22,5.14,5.14,0,0,1,.44-1.11,3.22,3.22,0,0,1,.69-.9,3.15,3.15,0,0,1,1-.61,3.87,3.87,0,0,1,1.38-.23,4.5,4.5,0,0,1,1.4.2,3.15,3.15,0,0,1,1,.54,2.91,2.91,0,0,1,.69.83,5,5,0,0,1,.43,1.06,7,7,0,0,1,.22,1.24c0,.44.06.89.06,1.36Z" transform="translate(0.46 -4.63)"/><path class="cls-2" d="M125.91,45.2a6.6,6.6,0,0,1-2.55-.45,4.07,4.07,0,0,1-1.71-1.28,6,6,0,0,1-1-2,9.24,9.24,0,0,1-.33-2.54,7.5,7.5,0,0,1,1.32-4.49,4,4,0,0,1,3.4-1.84,5.73,5.73,0,0,1,1.56.2,4.07,4.07,0,0,1,1.19.54,4.35,4.35,0,0,1,.85.73,4,4,0,0,1,.62.91l-.92.47a3.37,3.37,0,0,0-3.16-1.8,3,3,0,0,0-1.57.42,3.56,3.56,0,0,0-1.2,1.21,6.35,6.35,0,0,0-.77,1.7,7.55,7.55,0,0,0-.24,1.95,7.14,7.14,0,0,0,.26,1.9,7.28,7.28,0,0,0,.75,1.71,3.14,3.14,0,0,0,1.38,1.22,5.18,5.18,0,0,0,2.12.39,3.44,3.44,0,0,0,2.34-.92V40.35h-2.8v-1h3.81v4.38a5,5,0,0,1-.74.64,5.89,5.89,0,0,1-.85.47,4.91,4.91,0,0,1-.89.3A4,4,0,0,1,125.91,45.2Z" transform="translate(0.46 -4.63)"/><path class="cls-2" d="M131.68,45.2V32.57h7.47v1h-6.39v4.74h4.35v1h-4.35v4.72h6.39V45.2Z" transform="translate(0.46 -4.63)"/><path class="cls-2" d="M146.42,45.2a3.81,3.81,0,0,1-1.83-.44,5.1,5.1,0,0,1-1.54-1.29,6.1,6.1,0,0,1-1.12-2,8,8,0,0,1-.38-2.54,8.93,8.93,0,0,1,.09-1.27,11.44,11.44,0,0,1,.27-1.22,9.09,9.09,0,0,1,.41-1.11,6.46,6.46,0,0,1,.55-.94,4,4,0,0,1,.7-.73,5,5,0,0,1,.87-.57,4.19,4.19,0,0,1,1-.36,4.44,4.44,0,0,1,1-.13,4.34,4.34,0,0,1,3.48,1.64,5.87,5.87,0,0,1,1.07,2,8.77,8.77,0,0,1,.37,2.68,8,8,0,0,1-.37,2.54,6.36,6.36,0,0,1-1.07,2,5,5,0,0,1-1.55,1.29A4.07,4.07,0,0,1,146.42,45.2Zm0-1.08a3.69,3.69,0,0,0,1.61-.34,3.2,3.2,0,0,0,1.21-1,5,5,0,0,0,.76-1.67,8.77,8.77,0,0,0,.26-2.19,7.75,7.75,0,0,0-.27-2.08,5.87,5.87,0,0,0-.75-1.68A3.55,3.55,0,0,0,148,34a3.27,3.27,0,0,0-1.6-.39A3.19,3.19,0,0,0,145,34,4.09,4.09,0,0,0,143.71,35a4.25,4.25,0,0,0-.81,1.65,8.75,8.75,0,0,0-.25,2.22,5.71,5.71,0,0,0,1.18,3.86,4.48,4.48,0,0,0,1.25,1A2.84,2.84,0,0,0,146.42,44.12Z" transform="translate(0.46 -4.63)"/><path class="cls-2" d="M157.06,32.57a4.67,4.67,0,0,1,1.56.23,2.5,2.5,0,0,1,1.06.7,2.82,2.82,0,0,1,.62,1.09,4.88,4.88,0,0,1,.19,1.37,4.36,4.36,0,0,1-.11,1,2.35,2.35,0,0,1-.35.79,2.8,2.8,0,0,1-.62.68,7.47,7.47,0,0,1-.95.62,1.49,1.49,0,0,1,.47.44,3.23,3.23,0,0,1,.41.69,6.11,6.11,0,0,1,.35.89c.11.32.2.65.28,1a10.52,10.52,0,0,0,.61,1.91,7.68,7.68,0,0,0,.64,1.21h-1.1a1.08,1.08,0,0,1-.23-.33c-.08-.17-.16-.36-.25-.59s-.17-.5-.25-.78-.18-.59-.26-.91-.24-.83-.37-1.22a10.12,10.12,0,0,0-.43-1,2.56,2.56,0,0,0-.5-.69.81.81,0,0,0-.59-.26h-2.42v5.8h-1.08V32.57Zm-2.24,5.79h2.34a2.5,2.5,0,0,0,.88-.15,1.81,1.81,0,0,0,.71-.44,2,2,0,0,0,.48-.75,3.28,3.28,0,0,0,.16-1.06,3.13,3.13,0,0,0-.15-1,2,2,0,0,0-.47-.75,2.21,2.21,0,0,0-.75-.45,2.85,2.85,0,0,0-1-.14h-2.24Z" transform="translate(0.46 -4.63)"/><path class="cls-2" d="M169.21,45.2a6.59,6.59,0,0,1-2.54-.45A4.07,4.07,0,0,1,165,43.47a5.84,5.84,0,0,1-1-2,9.24,9.24,0,0,1-.33-2.54A7.44,7.44,0,0,1,165,34.41a4,4,0,0,1,3.39-1.84,5.63,5.63,0,0,1,1.56.2,4,4,0,0,1,1.19.54A4.35,4.35,0,0,1,172,34a3.74,3.74,0,0,1,.62.91l-.92.47a3.56,3.56,0,0,0-1.3-1.36,3.66,3.66,0,0,0-1.86-.44,3,3,0,0,0-1.57.42,3.54,3.54,0,0,0-1.19,1.21A5.79,5.79,0,0,0,165,37a7.54,7.54,0,0,0-.25,1.95,6.76,6.76,0,0,0,.27,1.9,7.28,7.28,0,0,0,.75,1.71,3,3,0,0,0,1.38,1.22,5.18,5.18,0,0,0,2.12.39,3.44,3.44,0,0,0,2.34-.92V40.35h-2.81v-1h3.81v4.38a4.54,4.54,0,0,1-.74.64,5.79,5.79,0,0,1-.84.47,5.28,5.28,0,0,1-.9.3A3.83,3.83,0,0,1,169.21,45.2Z" transform="translate(0.46 -4.63)"/><path class="cls-2" d="M175,45.2V32.57h1.06V45.2Z" transform="translate(0.46 -4.63)"/><path class="cls-2" d="M178.46,45.2l4.79-12.63h1.18L189.2,45.2h-1l-1.33-3.5h-6l-1.34,3.5Zm2.79-4.54h5.23l-2.64-6.89Z" transform="translate(0.46 -4.63)"/><path class="cls-2" d="M199.35,45.2l-6.66-10.77V45.2h-1.08V32.57h1.17l6.67,10.73V32.57h1.05V45.2Z" transform="translate(0.46 -4.63)"/><path class="cls-2" d="M212.21,45.2a6.55,6.55,0,0,1-2.54-.45A4.17,4.17,0,0,1,208,43.47a6,6,0,0,1-1-2,9.24,9.24,0,0,1-.33-2.54A7.5,7.5,0,0,1,208,34.41a4,4,0,0,1,3.4-1.84,5.63,5.63,0,0,1,1.56.2,4.07,4.07,0,0,1,1.19.54A4.35,4.35,0,0,1,215,34a3.74,3.74,0,0,1,.62.91l-.92.47a3.56,3.56,0,0,0-1.3-1.36,3.66,3.66,0,0,0-1.86-.44,3,3,0,0,0-1.57.42,3.54,3.54,0,0,0-1.19,1.21A5.79,5.79,0,0,0,208,37a7.13,7.13,0,0,0-.25,1.95,6.76,6.76,0,0,0,.27,1.9,6.54,6.54,0,0,0,.75,1.71,3.06,3.06,0,0,0,1.37,1.22,5.26,5.26,0,0,0,2.13.39,3.44,3.44,0,0,0,2.34-.92V40.35h-2.81v-1h3.81v4.38a4.54,4.54,0,0,1-.74.64,5.41,5.41,0,0,1-.85.47,4.91,4.91,0,0,1-.89.3A3.9,3.9,0,0,1,212.21,45.2Z" transform="translate(0.46 -4.63)"/><path class="cls-2" d="M218,45.2V32.57h7.47v1h-6.39v4.74h4.35v1h-4.35v4.72h6.39V45.2Z" transform="translate(0.46 -4.63)"/><path class="cls-2" d="M231.17,32.57a4.67,4.67,0,0,1,1.56.23,2.53,2.53,0,0,1,1.07.7,2.79,2.79,0,0,1,.61,1.09A4.54,4.54,0,0,1,234.6,36a4.36,4.36,0,0,1-.11,1,2.55,2.55,0,0,1-.34.79,3.07,3.07,0,0,1-.63.68,8.07,8.07,0,0,1-.94.62,1.74,1.74,0,0,1,.47.44,4.34,4.34,0,0,1,.41.69c.12.27.24.56.35.89s.19.65.28,1a11.44,11.44,0,0,0,.6,1.91,7.68,7.68,0,0,0,.64,1.21h-1.1a1.08,1.08,0,0,1-.23-.33c-.08-.17-.16-.36-.25-.59l-.25-.78c-.09-.29-.18-.59-.26-.91s-.24-.83-.37-1.22a8.24,8.24,0,0,0-.43-1,2.56,2.56,0,0,0-.5-.69.79.79,0,0,0-.58-.26h-2.42v5.8h-1.09V32.57Zm-2.23,5.79h2.33a2.5,2.5,0,0,0,.88-.15,1.92,1.92,0,0,0,.72-.44,2,2,0,0,0,.47-.75A3,3,0,0,0,233.5,36a3.13,3.13,0,0,0-.15-1,2,2,0,0,0-.47-.75,2,2,0,0,0-.75-.45,2.85,2.85,0,0,0-1-.14h-2.23Z" transform="translate(0.46 -4.63)"/><path class="cls-2" d="M237.75,45.2V32.57h1.17l4.44,7.26,4.44-7.26H249V45.2h-1.05V34.41l-4.55,7.4h0l-4.51-7.4V45.2Z" transform="translate(0.46 -4.63)"/><path class="cls-2" d="M251.36,45.2l4.79-12.63h1.18L262.1,45.2h-1l-1.34-3.5h-6l-1.34,3.5Zm2.79-4.54h5.23l-2.64-6.89Z" transform="translate(0.46 -4.63)"/><path class="cls-2" d="M272.25,45.2l-6.66-10.77V45.2h-1.08V32.57h1.17l6.67,10.73V32.57h1V45.2Z" transform="translate(0.46 -4.63)"/><path class="cls-2" d="M284.39,45.2a4.41,4.41,0,0,1-2-.45,4.55,4.55,0,0,1-1.55-1.28,5.87,5.87,0,0,1-1-2,9.37,9.37,0,0,1-.33-2.55,7.5,7.5,0,0,1,1.32-4.49,4,4,0,0,1,3.4-1.84,5.63,5.63,0,0,1,1.56.2,4,4,0,0,1,1.19.54,4.35,4.35,0,0,1,.85.73,3.74,3.74,0,0,1,.62.91l-.92.47a3.56,3.56,0,0,0-1.3-1.36,3.66,3.66,0,0,0-1.86-.44,3,3,0,0,0-1.57.42,3.54,3.54,0,0,0-1.19,1.21,5.79,5.79,0,0,0-.77,1.7,7.54,7.54,0,0,0-.25,1.95,7.14,7.14,0,0,0,.26,1.9,6.25,6.25,0,0,0,.76,1.71,3.42,3.42,0,0,0,1.19,1.2,3,3,0,0,0,1.57.41,7.27,7.27,0,0,0,1.1-.07,3.36,3.36,0,0,0,.9-.27,2,2,0,0,0,.63-.47,3.37,3.37,0,0,0,.57-.81l.86.35a5.12,5.12,0,0,1-.61,1,3.8,3.8,0,0,1-.76.74,3,3,0,0,1-1.11.46A7.24,7.24,0,0,1,284.39,45.2Z" transform="translate(0.46 -4.63)"/><path class="cls-2" d="M295.76,45.2a3.75,3.75,0,0,1-1.83-.44,5.13,5.13,0,0,1-1.55-1.29,6.29,6.29,0,0,1-1.12-2,8,8,0,0,1-.38-2.54,8.94,8.94,0,0,1,.1-1.27,9.41,9.41,0,0,1,.26-1.22,9.11,9.11,0,0,1,.42-1.11,5,5,0,0,1,.55-.94,3.65,3.65,0,0,1,.69-.73,5,5,0,0,1,.87-.57,4.37,4.37,0,0,1,1-.36,4.46,4.46,0,0,1,1-.13,4.32,4.32,0,0,1,3.47,1.64,5.87,5.87,0,0,1,1.07,2,8.77,8.77,0,0,1,.37,2.68,8,8,0,0,1-.37,2.54,6.36,6.36,0,0,1-1.07,2,4.9,4.9,0,0,1-1.55,1.29A4.05,4.05,0,0,1,295.76,45.2Zm0-1.08a3.64,3.64,0,0,0,1.6-.34,3.23,3.23,0,0,0,1.22-1,4.76,4.76,0,0,0,.75-1.67,8.77,8.77,0,0,0,.26-2.19,7.75,7.75,0,0,0-.27-2.08,6.15,6.15,0,0,0-.74-1.68A3.64,3.64,0,0,0,297.36,34a3.3,3.3,0,0,0-1.6-.39,3.2,3.2,0,0,0-1.48.36A3.94,3.94,0,0,0,293.05,35a4.13,4.13,0,0,0-.82,1.65A9.23,9.23,0,0,0,292,38.9a5.71,5.71,0,0,0,1.19,3.86,4.3,4.3,0,0,0,1.24,1A2.85,2.85,0,0,0,295.76,44.12Z" transform="translate(0.46 -4.63)"/><path class="cls-2" d="M303.08,45.2V32.57h1.08V44.12h6.38V45.2Z" transform="translate(0.46 -4.63)"/><path class="cls-2" d="M313,45.2V32.57H314V44.12h6.39V45.2Z" transform="translate(0.46 -4.63)"/><path class="cls-2" d="M322.82,45.2V32.57h7.47v1H323.9v4.74h4.35v1H323.9v4.72h6.39V45.2Z" transform="translate(0.46 -4.63)"/><path class="cls-2" d="M338.27,45.2a6.55,6.55,0,0,1-2.54-.45A4.17,4.17,0,0,1,334,43.47a6,6,0,0,1-1-2,9.24,9.24,0,0,1-.33-2.54A7.5,7.5,0,0,1,334,34.41a4,4,0,0,1,3.4-1.84,5.63,5.63,0,0,1,1.56.2,4.07,4.07,0,0,1,1.19.54A4.35,4.35,0,0,1,341,34a3.74,3.74,0,0,1,.62.91l-.92.47a3.37,3.37,0,0,0-3.16-1.8A3,3,0,0,0,336,34a3.54,3.54,0,0,0-1.19,1.21A5.79,5.79,0,0,0,334,37a7.13,7.13,0,0,0-.25,1.95,6.76,6.76,0,0,0,.27,1.9,6.54,6.54,0,0,0,.75,1.71,3.06,3.06,0,0,0,1.37,1.22,5.26,5.26,0,0,0,2.13.39,3.4,3.4,0,0,0,2.33-.92V40.35h-2.8v-1h3.81v4.38a4.54,4.54,0,0,1-.74.64,5.41,5.41,0,0,1-.85.47,4.91,4.91,0,0,1-.89.3A3.9,3.9,0,0,1,338.27,45.2Z" transform="translate(0.46 -4.63)"/><path class="cls-2" d="M344,45.2V32.57h7.47v1h-6.39v4.74h4.35v1h-4.35v4.72h6.39V45.2Z" transform="translate(0.46 -4.63)"/></svg>